G04 #@! TF.GenerationSoftware,KiCad,Pcbnew,(2018-02-10 revision a04965c)-master*
G04 #@! TF.CreationDate,2018-04-19T15:59:02-05:00*
G04 #@! TF.ProjectId,twotone,74776F746F6E652E6B696361645F7063,rev?*
G04 #@! TF.SameCoordinates,Original*
G04 #@! TF.FileFunction,Soldermask,Bot*
G04 #@! TF.FilePolarity,Negative*
%FSLAX46Y46*%
G04 Gerber Fmt 4.6, Leading zero omitted, Abs format (unit mm)*
G04 Created by KiCad (PCBNEW (2018-02-10 revision a04965c)-master) date Thursday, April 19, 2018 at 03:59:02 PM*
%MOMM*%
%LPD*%
G01*
G04 APERTURE LIST*
%ADD10C,0.300000*%
%ADD11R,2.200000X2.200000*%
%ADD12C,2.200000*%
%ADD13C,3.400000*%
%ADD14C,2.127200*%
%ADD15C,4.400000*%
%ADD16C,1.600000*%
%ADD17R,1.600000X1.600000*%
%ADD18C,2.000000*%
%ADD19C,2.000000*%
G04 APERTURE END LIST*
D10*
X1750000Y-107535714D02*
X1821428Y-107607142D01*
X1750000Y-107678571D01*
X1678571Y-107607142D01*
X1750000Y-107535714D01*
X1750000Y-107678571D01*
X1750000Y-107107142D02*
X1678571Y-106250000D01*
X1750000Y-106178571D01*
X1821428Y-106250000D01*
X1750000Y-107107142D01*
X1750000Y-106178571D01*
X12250000Y-107535714D02*
X12321428Y-107607142D01*
X12250000Y-107678571D01*
X12178571Y-107607142D01*
X12250000Y-107535714D01*
X12250000Y-107678571D01*
X12250000Y-107107142D02*
X12178571Y-106250000D01*
X12250000Y-106178571D01*
X12321428Y-106250000D01*
X12250000Y-107107142D01*
X12250000Y-106178571D01*
X12500000Y-2535714D02*
X12571428Y-2607142D01*
X12500000Y-2678571D01*
X12428571Y-2607142D01*
X12500000Y-2535714D01*
X12500000Y-2678571D01*
X12500000Y-2107142D02*
X12428571Y-1250000D01*
X12500000Y-1178571D01*
X12571428Y-1250000D01*
X12500000Y-2107142D01*
X12500000Y-1178571D01*
X1250000Y-2535714D02*
X1321428Y-2607142D01*
X1250000Y-2678571D01*
X1178571Y-2607142D01*
X1250000Y-2535714D01*
X1250000Y-2678571D01*
X1250000Y-2107142D02*
X1178571Y-1250000D01*
X1250000Y-1178571D01*
X1321428Y-1250000D01*
X1250000Y-2107142D01*
X1250000Y-1178571D01*
D11*
X7000000Y-13770000D03*
D12*
X7000000Y-11230000D03*
D11*
X7000000Y-68770000D03*
D12*
X7000000Y-66230000D03*
D13*
X7000000Y-89750000D03*
D14*
X2555000Y-89750000D03*
X10175000Y-89750000D03*
X12715000Y-89750000D03*
D13*
X7000000Y-75000000D03*
D14*
X2555000Y-75000000D03*
X10175000Y-75000000D03*
X12715000Y-75000000D03*
D13*
X7000000Y-60250000D03*
D14*
X2555000Y-60250000D03*
X10175000Y-60250000D03*
X12715000Y-60250000D03*
D13*
X7000000Y-34750000D03*
D14*
X2555000Y-34750000D03*
X10175000Y-34750000D03*
X12715000Y-34750000D03*
D13*
X7000000Y-20000000D03*
D14*
X2555000Y-20000000D03*
X10175000Y-20000000D03*
X12715000Y-20000000D03*
D13*
X7000000Y-5250000D03*
D14*
X2555000Y-5250000D03*
X10175000Y-5250000D03*
X12715000Y-5250000D03*
D12*
X4501900Y-53735380D03*
X7001900Y-53735380D03*
X9501900Y-53735380D03*
D15*
X2601900Y-46735380D03*
X11401900Y-46735380D03*
D12*
X4501900Y-108735380D03*
X7001900Y-108735380D03*
X9501900Y-108735380D03*
D15*
X2601900Y-101735380D03*
X11401900Y-101735380D03*
D16*
X3750000Y-41250000D03*
D17*
X2250000Y-41250000D03*
X2250000Y-96000000D03*
D16*
X3750000Y-96000000D03*
D12*
X12500000Y-25960000D03*
D11*
X12500000Y-28500000D03*
X12500000Y-83500000D03*
D12*
X12500000Y-80960000D03*
D18*
X12000000Y-12250000D03*
X10203949Y-14046051D03*
D19*
X10203949Y-14046051D02*
X10203949Y-14046051D01*
D18*
X4046051Y-11453949D03*
D19*
X4046051Y-11453949D02*
X4046051Y-11453949D01*
D18*
X2250000Y-13250000D03*
X12250000Y-67000000D03*
X10453949Y-68796051D03*
D19*
X10453949Y-68796051D02*
X10453949Y-68796051D01*
D18*
X4046051Y-66453949D03*
D19*
X4046051Y-66453949D02*
X4046051Y-66453949D01*
D18*
X2250000Y-68250000D03*
X1250000Y-25750000D03*
X1250000Y-28750000D03*
X1250000Y-83750000D03*
X1250000Y-80750000D03*
M02*
