M48
;DRILL file {KiCad (2018-02-10 revision a04965c)-master} date Thursday, April 19, 2018 at 03:59:10 PM
;FORMAT={-:-/ absolute / metric / decimal}
FMAT,2
METRIC,TZ
T1C0.600
T2C0.800
T3C0.900
T4C1.000
T5C1.016
T6C2.000
T7C3.000
%
G90
G05
M71
T1
X2.25Y-41.25
X3.75Y-41.25
X2.25Y-96.
X3.75Y-96.
T2
X1.25Y-25.75
X1.25Y-28.75
X2.25Y-68.25
X4.046Y-66.454
X1.25Y-80.75
X1.25Y-83.75
X10.454Y-68.796
X12.25Y-67.
X10.204Y-14.046
X12.Y-12.25
X2.25Y-13.25
X4.046Y-11.454
T3
X7.Y-66.23
X7.Y-68.77
X12.5Y-25.96
X12.5Y-28.5
X7.Y-11.23
X7.Y-13.77
X12.5Y-80.96
X12.5Y-83.5
T4
X4.502Y-108.735
X7.002Y-108.735
X9.502Y-108.735
X4.502Y-53.735
X7.002Y-53.735
X9.502Y-53.735
T5
X2.555Y-75.
X10.175Y-75.
X12.715Y-75.
X2.555Y-20.
X10.175Y-20.
X12.715Y-20.
X2.555Y-89.75
X10.175Y-89.75
X12.715Y-89.75
X2.555Y-34.75
X10.175Y-34.75
X12.715Y-34.75
X2.555Y-5.25
X10.175Y-5.25
X12.715Y-5.25
X2.555Y-60.25
X10.175Y-60.25
X12.715Y-60.25
T6
X2.602Y-101.735
X11.402Y-101.735
X2.602Y-46.735
X11.402Y-46.735
T7
X7.Y-20.
X7.Y-34.75
X7.Y-5.25
X7.Y-60.25
X7.Y-75.
X7.Y-89.75
T0
M30
