G04 #@! TF.GenerationSoftware,KiCad,Pcbnew,(2018-02-10 revision a04965c)-master*
G04 #@! TF.CreationDate,2018-04-19T15:59:02-05:00*
G04 #@! TF.ProjectId,twotone,74776F746F6E652E6B696361645F7063,rev?*
G04 #@! TF.SameCoordinates,Original*
G04 #@! TF.FileFunction,Copper,L2,Bot,Signal*
G04 #@! TF.FilePolarity,Positive*
%FSLAX46Y46*%
G04 Gerber Fmt 4.6, Leading zero omitted, Abs format (unit mm)*
G04 Created by KiCad (PCBNEW (2018-02-10 revision a04965c)-master) date Thursday, April 19, 2018 at 03:59:02 PM*
%MOMM*%
%LPD*%
G01*
G04 APERTURE LIST*
%ADD10R,1.800000X1.800000*%
%ADD11C,1.800000*%
%ADD12C,1.727200*%
%ADD13C,4.000000*%
%ADD14C,1.200000*%
%ADD15R,1.200000X1.200000*%
%ADD16C,1.600000*%
%ADD17C,1.600000*%
%ADD18C,0.254000*%
G04 APERTURE END LIST*
D10*
X7000000Y-13770000D03*
D11*
X7000000Y-11230000D03*
D10*
X7000000Y-68770000D03*
D11*
X7000000Y-66230000D03*
D12*
X2555000Y-89750000D03*
X10175000Y-89750000D03*
X12715000Y-89750000D03*
X2555000Y-75000000D03*
X10175000Y-75000000D03*
X12715000Y-75000000D03*
X2555000Y-60250000D03*
X10175000Y-60250000D03*
X12715000Y-60250000D03*
X2555000Y-34750000D03*
X10175000Y-34750000D03*
X12715000Y-34750000D03*
X2555000Y-20000000D03*
X10175000Y-20000000D03*
X12715000Y-20000000D03*
X2555000Y-5250000D03*
X10175000Y-5250000D03*
X12715000Y-5250000D03*
D11*
X4501900Y-53735380D03*
X7001900Y-53735380D03*
X9501900Y-53735380D03*
D13*
X2601900Y-46735380D03*
X11401900Y-46735380D03*
D11*
X4501900Y-108735380D03*
X7001900Y-108735380D03*
X9501900Y-108735380D03*
D13*
X2601900Y-101735380D03*
X11401900Y-101735380D03*
D14*
X3750000Y-41250000D03*
D15*
X2250000Y-41250000D03*
X2250000Y-96000000D03*
D14*
X3750000Y-96000000D03*
D11*
X12500000Y-25960000D03*
D10*
X12500000Y-28500000D03*
X12500000Y-83500000D03*
D11*
X12500000Y-80960000D03*
D16*
X12000000Y-12250000D03*
X10203949Y-14046051D03*
D17*
X10203949Y-14046051D02*
X10203949Y-14046051D01*
D16*
X4046051Y-11453949D03*
D17*
X4046051Y-11453949D02*
X4046051Y-11453949D01*
D16*
X2250000Y-13250000D03*
X12250000Y-67000000D03*
X10453949Y-68796051D03*
D17*
X10453949Y-68796051D02*
X10453949Y-68796051D01*
D16*
X4046051Y-66453949D03*
D17*
X4046051Y-66453949D02*
X4046051Y-66453949D01*
D16*
X2250000Y-68250000D03*
X1250000Y-25750000D03*
X1250000Y-28750000D03*
X1250000Y-83750000D03*
X1250000Y-80750000D03*
D18*
G36*
X13352500Y-3887211D02*
X12946970Y-3739752D01*
X12351365Y-3765942D01*
X11922741Y-3943484D01*
X11840800Y-4196195D01*
X12715000Y-5070395D01*
X12729143Y-5056253D01*
X12908748Y-5235858D01*
X12894605Y-5250000D01*
X12908748Y-5264143D01*
X12729143Y-5443748D01*
X12715000Y-5429605D01*
X11840800Y-6303805D01*
X11922741Y-6556516D01*
X12483030Y-6760248D01*
X13078635Y-6734058D01*
X13352500Y-6620619D01*
X13352500Y-11765389D01*
X13216534Y-11437138D01*
X12812862Y-11033466D01*
X12285439Y-10815000D01*
X11714561Y-10815000D01*
X11187138Y-11033466D01*
X10783466Y-11437138D01*
X10565000Y-11964561D01*
X10565000Y-12535439D01*
X10618860Y-12665469D01*
X10345282Y-12611051D01*
X10062616Y-12611051D01*
X9644040Y-12694311D01*
X9169372Y-13011474D01*
X8852209Y-13486142D01*
X8740836Y-14046051D01*
X8852209Y-14605960D01*
X9169372Y-15080628D01*
X9644040Y-15397791D01*
X10062616Y-15481051D01*
X10345282Y-15481051D01*
X10763858Y-15397791D01*
X11238526Y-15080628D01*
X11555689Y-14605960D01*
X11667062Y-14046051D01*
X11584531Y-13631140D01*
X11714561Y-13685000D01*
X12285439Y-13685000D01*
X12812862Y-13466534D01*
X13216534Y-13062862D01*
X13352500Y-12734611D01*
X13352500Y-18637211D01*
X12946970Y-18489752D01*
X12351365Y-18515942D01*
X11922741Y-18693484D01*
X11840800Y-18946195D01*
X12715000Y-19820395D01*
X12729143Y-19806253D01*
X12908748Y-19985858D01*
X12894605Y-20000000D01*
X12908748Y-20014143D01*
X12729143Y-20193748D01*
X12715000Y-20179605D01*
X11840800Y-21053805D01*
X11922741Y-21306516D01*
X12483030Y-21510248D01*
X13078635Y-21484058D01*
X13352500Y-21370619D01*
X13352500Y-24651646D01*
X12805330Y-24425000D01*
X12194670Y-24425000D01*
X11630493Y-24658690D01*
X11198690Y-25090493D01*
X10965000Y-25654670D01*
X10965000Y-26265330D01*
X11198690Y-26829507D01*
X11375044Y-27005861D01*
X11240301Y-27061673D01*
X11061673Y-27240302D01*
X10965000Y-27473691D01*
X10965000Y-28214250D01*
X11123750Y-28373000D01*
X12373000Y-28373000D01*
X12373000Y-28353000D01*
X12627000Y-28353000D01*
X12627000Y-28373000D01*
X12647000Y-28373000D01*
X12647000Y-28627000D01*
X12627000Y-28627000D01*
X12627000Y-29876250D01*
X12785750Y-30035000D01*
X13352500Y-30035000D01*
X13352500Y-33387211D01*
X12946970Y-33239752D01*
X12351365Y-33265942D01*
X11922741Y-33443484D01*
X11840800Y-33696195D01*
X12715000Y-34570395D01*
X12729143Y-34556253D01*
X12908748Y-34735858D01*
X12894605Y-34750000D01*
X12908748Y-34764143D01*
X12729143Y-34943748D01*
X12715000Y-34929605D01*
X11840800Y-35803805D01*
X11922741Y-36056516D01*
X12483030Y-36260248D01*
X13078635Y-36234058D01*
X13352500Y-36120619D01*
X13352500Y-44959527D01*
X12894508Y-44501535D01*
X11926034Y-44100380D01*
X10877766Y-44100380D01*
X9909292Y-44501535D01*
X9168055Y-45242772D01*
X8766900Y-46211246D01*
X8766900Y-47259514D01*
X9168055Y-48227988D01*
X9909292Y-48969225D01*
X10877766Y-49370380D01*
X11926034Y-49370380D01*
X12894508Y-48969225D01*
X13352500Y-48511233D01*
X13352500Y-54873000D01*
X10383096Y-54873000D01*
X10402454Y-54815539D01*
X9501900Y-53914985D01*
X8601346Y-54815539D01*
X8620704Y-54873000D01*
X8035097Y-54873000D01*
X8303210Y-54604887D01*
X8306439Y-54597090D01*
X8421741Y-54635934D01*
X9322295Y-53735380D01*
X9681505Y-53735380D01*
X10582059Y-54635934D01*
X10838543Y-54549528D01*
X11048358Y-53976044D01*
X11022739Y-53365920D01*
X10838543Y-52921232D01*
X10582059Y-52834826D01*
X9681505Y-53735380D01*
X9322295Y-53735380D01*
X8421741Y-52834826D01*
X8306439Y-52873670D01*
X8303210Y-52865873D01*
X8092558Y-52655221D01*
X8601346Y-52655221D01*
X9501900Y-53555775D01*
X10402454Y-52655221D01*
X10316048Y-52398737D01*
X9742564Y-52188922D01*
X9132440Y-52214541D01*
X8687752Y-52398737D01*
X8601346Y-52655221D01*
X8092558Y-52655221D01*
X7871407Y-52434070D01*
X7307230Y-52200380D01*
X6696570Y-52200380D01*
X6132393Y-52434070D01*
X5751900Y-52814563D01*
X5371407Y-52434070D01*
X4807230Y-52200380D01*
X4196570Y-52200380D01*
X3632393Y-52434070D01*
X3200590Y-52865873D01*
X2966900Y-53430050D01*
X2966900Y-54040710D01*
X3200590Y-54604887D01*
X3468703Y-54873000D01*
X647500Y-54873000D01*
X647500Y-48507433D01*
X1109292Y-48969225D01*
X2077766Y-49370380D01*
X3126034Y-49370380D01*
X4094508Y-48969225D01*
X4835745Y-48227988D01*
X5236900Y-47259514D01*
X5236900Y-46211246D01*
X4835745Y-45242772D01*
X4094508Y-44501535D01*
X3126034Y-44100380D01*
X2077766Y-44100380D01*
X1109292Y-44501535D01*
X647500Y-44963327D01*
X647500Y-40650000D01*
X1002560Y-40650000D01*
X1002560Y-41850000D01*
X1051843Y-42097765D01*
X1192191Y-42307809D01*
X1402235Y-42448157D01*
X1650000Y-42497440D01*
X2850000Y-42497440D01*
X3097765Y-42448157D01*
X3219317Y-42366938D01*
X3504343Y-42485000D01*
X3995657Y-42485000D01*
X4449571Y-42296982D01*
X4796982Y-41949571D01*
X4985000Y-41495657D01*
X4985000Y-41004343D01*
X4796982Y-40550429D01*
X4449571Y-40203018D01*
X3995657Y-40015000D01*
X3504343Y-40015000D01*
X3219317Y-40133062D01*
X3097765Y-40051843D01*
X2850000Y-40002560D01*
X1650000Y-40002560D01*
X1402235Y-40051843D01*
X1192191Y-40192191D01*
X1051843Y-40402235D01*
X1002560Y-40650000D01*
X647500Y-40650000D01*
X647500Y-34451910D01*
X1056400Y-34451910D01*
X1056400Y-35048090D01*
X1284549Y-35598889D01*
X1706111Y-36020451D01*
X2256910Y-36248600D01*
X2853090Y-36248600D01*
X3403889Y-36020451D01*
X3825451Y-35598889D01*
X4053600Y-35048090D01*
X4053600Y-34451910D01*
X4001166Y-34325322D01*
X4865000Y-34325322D01*
X4865000Y-35174678D01*
X5190034Y-35959380D01*
X5790620Y-36559966D01*
X6575322Y-36885000D01*
X7424678Y-36885000D01*
X8209380Y-36559966D01*
X8809966Y-35959380D01*
X8943254Y-35637594D01*
X9326111Y-36020451D01*
X9876910Y-36248600D01*
X10473090Y-36248600D01*
X11023889Y-36020451D01*
X11445451Y-35598889D01*
X11461753Y-35559532D01*
X11661195Y-35624200D01*
X12535395Y-34750000D01*
X11661195Y-33875800D01*
X11461753Y-33940468D01*
X11445451Y-33901111D01*
X11023889Y-33479549D01*
X10473090Y-33251400D01*
X9876910Y-33251400D01*
X9326111Y-33479549D01*
X8943254Y-33862406D01*
X8809966Y-33540620D01*
X8209380Y-32940034D01*
X7424678Y-32615000D01*
X6575322Y-32615000D01*
X5790620Y-32940034D01*
X5190034Y-33540620D01*
X4865000Y-34325322D01*
X4001166Y-34325322D01*
X3825451Y-33901111D01*
X3403889Y-33479549D01*
X2853090Y-33251400D01*
X2256910Y-33251400D01*
X1706111Y-33479549D01*
X1284549Y-33901111D01*
X1056400Y-34451910D01*
X647500Y-34451910D01*
X647500Y-30053669D01*
X964561Y-30185000D01*
X1535439Y-30185000D01*
X2062862Y-29966534D01*
X2466534Y-29562862D01*
X2685000Y-29035439D01*
X2685000Y-28785750D01*
X10965000Y-28785750D01*
X10965000Y-29526309D01*
X11061673Y-29759698D01*
X11240301Y-29938327D01*
X11473690Y-30035000D01*
X12214250Y-30035000D01*
X12373000Y-29876250D01*
X12373000Y-28627000D01*
X11123750Y-28627000D01*
X10965000Y-28785750D01*
X2685000Y-28785750D01*
X2685000Y-28464561D01*
X2466534Y-27937138D01*
X2062862Y-27533466D01*
X1535439Y-27315000D01*
X964561Y-27315000D01*
X647500Y-27446331D01*
X647500Y-27053669D01*
X964561Y-27185000D01*
X1535439Y-27185000D01*
X2062862Y-26966534D01*
X2466534Y-26562862D01*
X2685000Y-26035439D01*
X2685000Y-25464561D01*
X2466534Y-24937138D01*
X2062862Y-24533466D01*
X1535439Y-24315000D01*
X964561Y-24315000D01*
X647500Y-24446331D01*
X647500Y-19701910D01*
X1056400Y-19701910D01*
X1056400Y-20298090D01*
X1284549Y-20848889D01*
X1706111Y-21270451D01*
X2256910Y-21498600D01*
X2853090Y-21498600D01*
X3403889Y-21270451D01*
X3825451Y-20848889D01*
X4053600Y-20298090D01*
X4053600Y-19701910D01*
X4001166Y-19575322D01*
X4865000Y-19575322D01*
X4865000Y-20424678D01*
X5190034Y-21209380D01*
X5790620Y-21809966D01*
X6575322Y-22135000D01*
X7424678Y-22135000D01*
X8209380Y-21809966D01*
X8809966Y-21209380D01*
X8943254Y-20887594D01*
X9326111Y-21270451D01*
X9876910Y-21498600D01*
X10473090Y-21498600D01*
X11023889Y-21270451D01*
X11445451Y-20848889D01*
X11461753Y-20809532D01*
X11661195Y-20874200D01*
X12535395Y-20000000D01*
X11661195Y-19125800D01*
X11461753Y-19190468D01*
X11445451Y-19151111D01*
X11023889Y-18729549D01*
X10473090Y-18501400D01*
X9876910Y-18501400D01*
X9326111Y-18729549D01*
X8943254Y-19112406D01*
X8809966Y-18790620D01*
X8209380Y-18190034D01*
X7424678Y-17865000D01*
X6575322Y-17865000D01*
X5790620Y-18190034D01*
X5190034Y-18790620D01*
X4865000Y-19575322D01*
X4001166Y-19575322D01*
X3825451Y-19151111D01*
X3403889Y-18729549D01*
X2853090Y-18501400D01*
X2256910Y-18501400D01*
X1706111Y-18729549D01*
X1284549Y-19151111D01*
X1056400Y-19701910D01*
X647500Y-19701910D01*
X647500Y-12964561D01*
X815000Y-12964561D01*
X815000Y-13535439D01*
X1033466Y-14062862D01*
X1437138Y-14466534D01*
X1964561Y-14685000D01*
X2535439Y-14685000D01*
X3062862Y-14466534D01*
X3466534Y-14062862D01*
X3469479Y-14055750D01*
X5465000Y-14055750D01*
X5465000Y-14796309D01*
X5561673Y-15029698D01*
X5740301Y-15208327D01*
X5973690Y-15305000D01*
X6714250Y-15305000D01*
X6873000Y-15146250D01*
X6873000Y-13897000D01*
X7127000Y-13897000D01*
X7127000Y-15146250D01*
X7285750Y-15305000D01*
X8026310Y-15305000D01*
X8259699Y-15208327D01*
X8438327Y-15029698D01*
X8535000Y-14796309D01*
X8535000Y-14055750D01*
X8376250Y-13897000D01*
X7127000Y-13897000D01*
X6873000Y-13897000D01*
X5623750Y-13897000D01*
X5465000Y-14055750D01*
X3469479Y-14055750D01*
X3685000Y-13535439D01*
X3685000Y-12964561D01*
X3631140Y-12834531D01*
X3904718Y-12888949D01*
X4187384Y-12888949D01*
X4605960Y-12805689D01*
X5080628Y-12488526D01*
X5397791Y-12013858D01*
X5483900Y-11580959D01*
X5698690Y-12099507D01*
X5875044Y-12275861D01*
X5740301Y-12331673D01*
X5561673Y-12510302D01*
X5465000Y-12743691D01*
X5465000Y-13484250D01*
X5623750Y-13643000D01*
X6873000Y-13643000D01*
X6873000Y-13623000D01*
X7127000Y-13623000D01*
X7127000Y-13643000D01*
X8376250Y-13643000D01*
X8535000Y-13484250D01*
X8535000Y-12743691D01*
X8438327Y-12510302D01*
X8259699Y-12331673D01*
X8124956Y-12275861D01*
X8301310Y-12099507D01*
X8535000Y-11535330D01*
X8535000Y-10924670D01*
X8301310Y-10360493D01*
X7869507Y-9928690D01*
X7305330Y-9695000D01*
X6694670Y-9695000D01*
X6130493Y-9928690D01*
X5698690Y-10360493D01*
X5465000Y-10924670D01*
X5465000Y-11231922D01*
X5397791Y-10894040D01*
X5080628Y-10419372D01*
X4605960Y-10102209D01*
X4187384Y-10018949D01*
X3904718Y-10018949D01*
X3486142Y-10102209D01*
X3011474Y-10419372D01*
X2694311Y-10894040D01*
X2582938Y-11453949D01*
X2665469Y-11868860D01*
X2535439Y-11815000D01*
X1964561Y-11815000D01*
X1437138Y-12033466D01*
X1033466Y-12437138D01*
X815000Y-12964561D01*
X647500Y-12964561D01*
X647500Y-4951910D01*
X1056400Y-4951910D01*
X1056400Y-5548090D01*
X1284549Y-6098889D01*
X1706111Y-6520451D01*
X2256910Y-6748600D01*
X2853090Y-6748600D01*
X3403889Y-6520451D01*
X3825451Y-6098889D01*
X4053600Y-5548090D01*
X4053600Y-4951910D01*
X4001166Y-4825322D01*
X4865000Y-4825322D01*
X4865000Y-5674678D01*
X5190034Y-6459380D01*
X5790620Y-7059966D01*
X6575322Y-7385000D01*
X7424678Y-7385000D01*
X8209380Y-7059966D01*
X8809966Y-6459380D01*
X8943254Y-6137594D01*
X9326111Y-6520451D01*
X9876910Y-6748600D01*
X10473090Y-6748600D01*
X11023889Y-6520451D01*
X11445451Y-6098889D01*
X11461753Y-6059532D01*
X11661195Y-6124200D01*
X12535395Y-5250000D01*
X11661195Y-4375800D01*
X11461753Y-4440468D01*
X11445451Y-4401111D01*
X11023889Y-3979549D01*
X10473090Y-3751400D01*
X9876910Y-3751400D01*
X9326111Y-3979549D01*
X8943254Y-4362406D01*
X8809966Y-4040620D01*
X8209380Y-3440034D01*
X7424678Y-3115000D01*
X6575322Y-3115000D01*
X5790620Y-3440034D01*
X5190034Y-4040620D01*
X4865000Y-4825322D01*
X4001166Y-4825322D01*
X3825451Y-4401111D01*
X3403889Y-3979549D01*
X2853090Y-3751400D01*
X2256910Y-3751400D01*
X1706111Y-3979549D01*
X1284549Y-4401111D01*
X1056400Y-4951910D01*
X647500Y-4951910D01*
X647500Y-647500D01*
X13352500Y-647500D01*
X13352500Y-3887211D01*
X13352500Y-3887211D01*
G37*
X13352500Y-3887211D02*
X12946970Y-3739752D01*
X12351365Y-3765942D01*
X11922741Y-3943484D01*
X11840800Y-4196195D01*
X12715000Y-5070395D01*
X12729143Y-5056253D01*
X12908748Y-5235858D01*
X12894605Y-5250000D01*
X12908748Y-5264143D01*
X12729143Y-5443748D01*
X12715000Y-5429605D01*
X11840800Y-6303805D01*
X11922741Y-6556516D01*
X12483030Y-6760248D01*
X13078635Y-6734058D01*
X13352500Y-6620619D01*
X13352500Y-11765389D01*
X13216534Y-11437138D01*
X12812862Y-11033466D01*
X12285439Y-10815000D01*
X11714561Y-10815000D01*
X11187138Y-11033466D01*
X10783466Y-11437138D01*
X10565000Y-11964561D01*
X10565000Y-12535439D01*
X10618860Y-12665469D01*
X10345282Y-12611051D01*
X10062616Y-12611051D01*
X9644040Y-12694311D01*
X9169372Y-13011474D01*
X8852209Y-13486142D01*
X8740836Y-14046051D01*
X8852209Y-14605960D01*
X9169372Y-15080628D01*
X9644040Y-15397791D01*
X10062616Y-15481051D01*
X10345282Y-15481051D01*
X10763858Y-15397791D01*
X11238526Y-15080628D01*
X11555689Y-14605960D01*
X11667062Y-14046051D01*
X11584531Y-13631140D01*
X11714561Y-13685000D01*
X12285439Y-13685000D01*
X12812862Y-13466534D01*
X13216534Y-13062862D01*
X13352500Y-12734611D01*
X13352500Y-18637211D01*
X12946970Y-18489752D01*
X12351365Y-18515942D01*
X11922741Y-18693484D01*
X11840800Y-18946195D01*
X12715000Y-19820395D01*
X12729143Y-19806253D01*
X12908748Y-19985858D01*
X12894605Y-20000000D01*
X12908748Y-20014143D01*
X12729143Y-20193748D01*
X12715000Y-20179605D01*
X11840800Y-21053805D01*
X11922741Y-21306516D01*
X12483030Y-21510248D01*
X13078635Y-21484058D01*
X13352500Y-21370619D01*
X13352500Y-24651646D01*
X12805330Y-24425000D01*
X12194670Y-24425000D01*
X11630493Y-24658690D01*
X11198690Y-25090493D01*
X10965000Y-25654670D01*
X10965000Y-26265330D01*
X11198690Y-26829507D01*
X11375044Y-27005861D01*
X11240301Y-27061673D01*
X11061673Y-27240302D01*
X10965000Y-27473691D01*
X10965000Y-28214250D01*
X11123750Y-28373000D01*
X12373000Y-28373000D01*
X12373000Y-28353000D01*
X12627000Y-28353000D01*
X12627000Y-28373000D01*
X12647000Y-28373000D01*
X12647000Y-28627000D01*
X12627000Y-28627000D01*
X12627000Y-29876250D01*
X12785750Y-30035000D01*
X13352500Y-30035000D01*
X13352500Y-33387211D01*
X12946970Y-33239752D01*
X12351365Y-33265942D01*
X11922741Y-33443484D01*
X11840800Y-33696195D01*
X12715000Y-34570395D01*
X12729143Y-34556253D01*
X12908748Y-34735858D01*
X12894605Y-34750000D01*
X12908748Y-34764143D01*
X12729143Y-34943748D01*
X12715000Y-34929605D01*
X11840800Y-35803805D01*
X11922741Y-36056516D01*
X12483030Y-36260248D01*
X13078635Y-36234058D01*
X13352500Y-36120619D01*
X13352500Y-44959527D01*
X12894508Y-44501535D01*
X11926034Y-44100380D01*
X10877766Y-44100380D01*
X9909292Y-44501535D01*
X9168055Y-45242772D01*
X8766900Y-46211246D01*
X8766900Y-47259514D01*
X9168055Y-48227988D01*
X9909292Y-48969225D01*
X10877766Y-49370380D01*
X11926034Y-49370380D01*
X12894508Y-48969225D01*
X13352500Y-48511233D01*
X13352500Y-54873000D01*
X10383096Y-54873000D01*
X10402454Y-54815539D01*
X9501900Y-53914985D01*
X8601346Y-54815539D01*
X8620704Y-54873000D01*
X8035097Y-54873000D01*
X8303210Y-54604887D01*
X8306439Y-54597090D01*
X8421741Y-54635934D01*
X9322295Y-53735380D01*
X9681505Y-53735380D01*
X10582059Y-54635934D01*
X10838543Y-54549528D01*
X11048358Y-53976044D01*
X11022739Y-53365920D01*
X10838543Y-52921232D01*
X10582059Y-52834826D01*
X9681505Y-53735380D01*
X9322295Y-53735380D01*
X8421741Y-52834826D01*
X8306439Y-52873670D01*
X8303210Y-52865873D01*
X8092558Y-52655221D01*
X8601346Y-52655221D01*
X9501900Y-53555775D01*
X10402454Y-52655221D01*
X10316048Y-52398737D01*
X9742564Y-52188922D01*
X9132440Y-52214541D01*
X8687752Y-52398737D01*
X8601346Y-52655221D01*
X8092558Y-52655221D01*
X7871407Y-52434070D01*
X7307230Y-52200380D01*
X6696570Y-52200380D01*
X6132393Y-52434070D01*
X5751900Y-52814563D01*
X5371407Y-52434070D01*
X4807230Y-52200380D01*
X4196570Y-52200380D01*
X3632393Y-52434070D01*
X3200590Y-52865873D01*
X2966900Y-53430050D01*
X2966900Y-54040710D01*
X3200590Y-54604887D01*
X3468703Y-54873000D01*
X647500Y-54873000D01*
X647500Y-48507433D01*
X1109292Y-48969225D01*
X2077766Y-49370380D01*
X3126034Y-49370380D01*
X4094508Y-48969225D01*
X4835745Y-48227988D01*
X5236900Y-47259514D01*
X5236900Y-46211246D01*
X4835745Y-45242772D01*
X4094508Y-44501535D01*
X3126034Y-44100380D01*
X2077766Y-44100380D01*
X1109292Y-44501535D01*
X647500Y-44963327D01*
X647500Y-40650000D01*
X1002560Y-40650000D01*
X1002560Y-41850000D01*
X1051843Y-42097765D01*
X1192191Y-42307809D01*
X1402235Y-42448157D01*
X1650000Y-42497440D01*
X2850000Y-42497440D01*
X3097765Y-42448157D01*
X3219317Y-42366938D01*
X3504343Y-42485000D01*
X3995657Y-42485000D01*
X4449571Y-42296982D01*
X4796982Y-41949571D01*
X4985000Y-41495657D01*
X4985000Y-41004343D01*
X4796982Y-40550429D01*
X4449571Y-40203018D01*
X3995657Y-40015000D01*
X3504343Y-40015000D01*
X3219317Y-40133062D01*
X3097765Y-40051843D01*
X2850000Y-40002560D01*
X1650000Y-40002560D01*
X1402235Y-40051843D01*
X1192191Y-40192191D01*
X1051843Y-40402235D01*
X1002560Y-40650000D01*
X647500Y-40650000D01*
X647500Y-34451910D01*
X1056400Y-34451910D01*
X1056400Y-35048090D01*
X1284549Y-35598889D01*
X1706111Y-36020451D01*
X2256910Y-36248600D01*
X2853090Y-36248600D01*
X3403889Y-36020451D01*
X3825451Y-35598889D01*
X4053600Y-35048090D01*
X4053600Y-34451910D01*
X4001166Y-34325322D01*
X4865000Y-34325322D01*
X4865000Y-35174678D01*
X5190034Y-35959380D01*
X5790620Y-36559966D01*
X6575322Y-36885000D01*
X7424678Y-36885000D01*
X8209380Y-36559966D01*
X8809966Y-35959380D01*
X8943254Y-35637594D01*
X9326111Y-36020451D01*
X9876910Y-36248600D01*
X10473090Y-36248600D01*
X11023889Y-36020451D01*
X11445451Y-35598889D01*
X11461753Y-35559532D01*
X11661195Y-35624200D01*
X12535395Y-34750000D01*
X11661195Y-33875800D01*
X11461753Y-33940468D01*
X11445451Y-33901111D01*
X11023889Y-33479549D01*
X10473090Y-33251400D01*
X9876910Y-33251400D01*
X9326111Y-33479549D01*
X8943254Y-33862406D01*
X8809966Y-33540620D01*
X8209380Y-32940034D01*
X7424678Y-32615000D01*
X6575322Y-32615000D01*
X5790620Y-32940034D01*
X5190034Y-33540620D01*
X4865000Y-34325322D01*
X4001166Y-34325322D01*
X3825451Y-33901111D01*
X3403889Y-33479549D01*
X2853090Y-33251400D01*
X2256910Y-33251400D01*
X1706111Y-33479549D01*
X1284549Y-33901111D01*
X1056400Y-34451910D01*
X647500Y-34451910D01*
X647500Y-30053669D01*
X964561Y-30185000D01*
X1535439Y-30185000D01*
X2062862Y-29966534D01*
X2466534Y-29562862D01*
X2685000Y-29035439D01*
X2685000Y-28785750D01*
X10965000Y-28785750D01*
X10965000Y-29526309D01*
X11061673Y-29759698D01*
X11240301Y-29938327D01*
X11473690Y-30035000D01*
X12214250Y-30035000D01*
X12373000Y-29876250D01*
X12373000Y-28627000D01*
X11123750Y-28627000D01*
X10965000Y-28785750D01*
X2685000Y-28785750D01*
X2685000Y-28464561D01*
X2466534Y-27937138D01*
X2062862Y-27533466D01*
X1535439Y-27315000D01*
X964561Y-27315000D01*
X647500Y-27446331D01*
X647500Y-27053669D01*
X964561Y-27185000D01*
X1535439Y-27185000D01*
X2062862Y-26966534D01*
X2466534Y-26562862D01*
X2685000Y-26035439D01*
X2685000Y-25464561D01*
X2466534Y-24937138D01*
X2062862Y-24533466D01*
X1535439Y-24315000D01*
X964561Y-24315000D01*
X647500Y-24446331D01*
X647500Y-19701910D01*
X1056400Y-19701910D01*
X1056400Y-20298090D01*
X1284549Y-20848889D01*
X1706111Y-21270451D01*
X2256910Y-21498600D01*
X2853090Y-21498600D01*
X3403889Y-21270451D01*
X3825451Y-20848889D01*
X4053600Y-20298090D01*
X4053600Y-19701910D01*
X4001166Y-19575322D01*
X4865000Y-19575322D01*
X4865000Y-20424678D01*
X5190034Y-21209380D01*
X5790620Y-21809966D01*
X6575322Y-22135000D01*
X7424678Y-22135000D01*
X8209380Y-21809966D01*
X8809966Y-21209380D01*
X8943254Y-20887594D01*
X9326111Y-21270451D01*
X9876910Y-21498600D01*
X10473090Y-21498600D01*
X11023889Y-21270451D01*
X11445451Y-20848889D01*
X11461753Y-20809532D01*
X11661195Y-20874200D01*
X12535395Y-20000000D01*
X11661195Y-19125800D01*
X11461753Y-19190468D01*
X11445451Y-19151111D01*
X11023889Y-18729549D01*
X10473090Y-18501400D01*
X9876910Y-18501400D01*
X9326111Y-18729549D01*
X8943254Y-19112406D01*
X8809966Y-18790620D01*
X8209380Y-18190034D01*
X7424678Y-17865000D01*
X6575322Y-17865000D01*
X5790620Y-18190034D01*
X5190034Y-18790620D01*
X4865000Y-19575322D01*
X4001166Y-19575322D01*
X3825451Y-19151111D01*
X3403889Y-18729549D01*
X2853090Y-18501400D01*
X2256910Y-18501400D01*
X1706111Y-18729549D01*
X1284549Y-19151111D01*
X1056400Y-19701910D01*
X647500Y-19701910D01*
X647500Y-12964561D01*
X815000Y-12964561D01*
X815000Y-13535439D01*
X1033466Y-14062862D01*
X1437138Y-14466534D01*
X1964561Y-14685000D01*
X2535439Y-14685000D01*
X3062862Y-14466534D01*
X3466534Y-14062862D01*
X3469479Y-14055750D01*
X5465000Y-14055750D01*
X5465000Y-14796309D01*
X5561673Y-15029698D01*
X5740301Y-15208327D01*
X5973690Y-15305000D01*
X6714250Y-15305000D01*
X6873000Y-15146250D01*
X6873000Y-13897000D01*
X7127000Y-13897000D01*
X7127000Y-15146250D01*
X7285750Y-15305000D01*
X8026310Y-15305000D01*
X8259699Y-15208327D01*
X8438327Y-15029698D01*
X8535000Y-14796309D01*
X8535000Y-14055750D01*
X8376250Y-13897000D01*
X7127000Y-13897000D01*
X6873000Y-13897000D01*
X5623750Y-13897000D01*
X5465000Y-14055750D01*
X3469479Y-14055750D01*
X3685000Y-13535439D01*
X3685000Y-12964561D01*
X3631140Y-12834531D01*
X3904718Y-12888949D01*
X4187384Y-12888949D01*
X4605960Y-12805689D01*
X5080628Y-12488526D01*
X5397791Y-12013858D01*
X5483900Y-11580959D01*
X5698690Y-12099507D01*
X5875044Y-12275861D01*
X5740301Y-12331673D01*
X5561673Y-12510302D01*
X5465000Y-12743691D01*
X5465000Y-13484250D01*
X5623750Y-13643000D01*
X6873000Y-13643000D01*
X6873000Y-13623000D01*
X7127000Y-13623000D01*
X7127000Y-13643000D01*
X8376250Y-13643000D01*
X8535000Y-13484250D01*
X8535000Y-12743691D01*
X8438327Y-12510302D01*
X8259699Y-12331673D01*
X8124956Y-12275861D01*
X8301310Y-12099507D01*
X8535000Y-11535330D01*
X8535000Y-10924670D01*
X8301310Y-10360493D01*
X7869507Y-9928690D01*
X7305330Y-9695000D01*
X6694670Y-9695000D01*
X6130493Y-9928690D01*
X5698690Y-10360493D01*
X5465000Y-10924670D01*
X5465000Y-11231922D01*
X5397791Y-10894040D01*
X5080628Y-10419372D01*
X4605960Y-10102209D01*
X4187384Y-10018949D01*
X3904718Y-10018949D01*
X3486142Y-10102209D01*
X3011474Y-10419372D01*
X2694311Y-10894040D01*
X2582938Y-11453949D01*
X2665469Y-11868860D01*
X2535439Y-11815000D01*
X1964561Y-11815000D01*
X1437138Y-12033466D01*
X1033466Y-12437138D01*
X815000Y-12964561D01*
X647500Y-12964561D01*
X647500Y-4951910D01*
X1056400Y-4951910D01*
X1056400Y-5548090D01*
X1284549Y-6098889D01*
X1706111Y-6520451D01*
X2256910Y-6748600D01*
X2853090Y-6748600D01*
X3403889Y-6520451D01*
X3825451Y-6098889D01*
X4053600Y-5548090D01*
X4053600Y-4951910D01*
X4001166Y-4825322D01*
X4865000Y-4825322D01*
X4865000Y-5674678D01*
X5190034Y-6459380D01*
X5790620Y-7059966D01*
X6575322Y-7385000D01*
X7424678Y-7385000D01*
X8209380Y-7059966D01*
X8809966Y-6459380D01*
X8943254Y-6137594D01*
X9326111Y-6520451D01*
X9876910Y-6748600D01*
X10473090Y-6748600D01*
X11023889Y-6520451D01*
X11445451Y-6098889D01*
X11461753Y-6059532D01*
X11661195Y-6124200D01*
X12535395Y-5250000D01*
X11661195Y-4375800D01*
X11461753Y-4440468D01*
X11445451Y-4401111D01*
X11023889Y-3979549D01*
X10473090Y-3751400D01*
X9876910Y-3751400D01*
X9326111Y-3979549D01*
X8943254Y-4362406D01*
X8809966Y-4040620D01*
X8209380Y-3440034D01*
X7424678Y-3115000D01*
X6575322Y-3115000D01*
X5790620Y-3440034D01*
X5190034Y-4040620D01*
X4865000Y-4825322D01*
X4001166Y-4825322D01*
X3825451Y-4401111D01*
X3403889Y-3979549D01*
X2853090Y-3751400D01*
X2256910Y-3751400D01*
X1706111Y-3979549D01*
X1284549Y-4401111D01*
X1056400Y-4951910D01*
X647500Y-4951910D01*
X647500Y-647500D01*
X13352500Y-647500D01*
X13352500Y-3887211D01*
G36*
X5790620Y-58440034D02*
X5190034Y-59040620D01*
X4865000Y-59825322D01*
X4865000Y-60674678D01*
X5190034Y-61459380D01*
X5790620Y-62059966D01*
X6575322Y-62385000D01*
X7424678Y-62385000D01*
X8209380Y-62059966D01*
X8809966Y-61459380D01*
X8943254Y-61137594D01*
X9326111Y-61520451D01*
X9876910Y-61748600D01*
X10473090Y-61748600D01*
X11023889Y-61520451D01*
X11445451Y-61098889D01*
X11461753Y-61059532D01*
X11661195Y-61124200D01*
X12535395Y-60250000D01*
X11661195Y-59375800D01*
X11461753Y-59440468D01*
X11445451Y-59401111D01*
X11023889Y-58979549D01*
X10473090Y-58751400D01*
X9876910Y-58751400D01*
X9326111Y-58979549D01*
X8943254Y-59362406D01*
X8809966Y-59040620D01*
X8209380Y-58440034D01*
X8057202Y-58377000D01*
X13352501Y-58377000D01*
X13352501Y-58887211D01*
X12946970Y-58739752D01*
X12351365Y-58765942D01*
X11922741Y-58943484D01*
X11840800Y-59196195D01*
X12715000Y-60070395D01*
X12729143Y-60056253D01*
X12908748Y-60235858D01*
X12894605Y-60250000D01*
X12908748Y-60264143D01*
X12729143Y-60443748D01*
X12715000Y-60429605D01*
X11840800Y-61303805D01*
X11922741Y-61556516D01*
X12483030Y-61760248D01*
X13078635Y-61734058D01*
X13352501Y-61620619D01*
X13352501Y-66073105D01*
X13062862Y-65783466D01*
X12535439Y-65565000D01*
X11964561Y-65565000D01*
X11437138Y-65783466D01*
X11033466Y-66187138D01*
X10815000Y-66714561D01*
X10815000Y-67285439D01*
X10868860Y-67415469D01*
X10595282Y-67361051D01*
X10312616Y-67361051D01*
X9894040Y-67444311D01*
X9419372Y-67761474D01*
X9102209Y-68236142D01*
X8990836Y-68796051D01*
X9102209Y-69355960D01*
X9419372Y-69830628D01*
X9894040Y-70147791D01*
X10312616Y-70231051D01*
X10595282Y-70231051D01*
X11013858Y-70147791D01*
X11488526Y-69830628D01*
X11805689Y-69355960D01*
X11917062Y-68796051D01*
X11834531Y-68381140D01*
X11964561Y-68435000D01*
X12535439Y-68435000D01*
X13062862Y-68216534D01*
X13352501Y-67926895D01*
X13352501Y-73637211D01*
X12946970Y-73489752D01*
X12351365Y-73515942D01*
X11922741Y-73693484D01*
X11840800Y-73946195D01*
X12715000Y-74820395D01*
X12729143Y-74806253D01*
X12908748Y-74985858D01*
X12894605Y-75000000D01*
X12908748Y-75014143D01*
X12729143Y-75193748D01*
X12715000Y-75179605D01*
X11840800Y-76053805D01*
X11922741Y-76306516D01*
X12483030Y-76510248D01*
X13078635Y-76484058D01*
X13352501Y-76370619D01*
X13352501Y-79651646D01*
X12805330Y-79425000D01*
X12194670Y-79425000D01*
X11630493Y-79658690D01*
X11198690Y-80090493D01*
X10965000Y-80654670D01*
X10965000Y-81265330D01*
X11198690Y-81829507D01*
X11375044Y-82005861D01*
X11240301Y-82061673D01*
X11061673Y-82240302D01*
X10965000Y-82473691D01*
X10965000Y-83214250D01*
X11123750Y-83373000D01*
X12373000Y-83373000D01*
X12373000Y-83353000D01*
X12627000Y-83353000D01*
X12627000Y-83373000D01*
X12647000Y-83373000D01*
X12647000Y-83627000D01*
X12627000Y-83627000D01*
X12627000Y-84876250D01*
X12785750Y-85035000D01*
X13352501Y-85035000D01*
X13352501Y-88387211D01*
X12946970Y-88239752D01*
X12351365Y-88265942D01*
X11922741Y-88443484D01*
X11840800Y-88696195D01*
X12715000Y-89570395D01*
X12729143Y-89556253D01*
X12908748Y-89735858D01*
X12894605Y-89750000D01*
X12908748Y-89764143D01*
X12729143Y-89943748D01*
X12715000Y-89929605D01*
X11840800Y-90803805D01*
X11922741Y-91056516D01*
X12483030Y-91260248D01*
X13078635Y-91234058D01*
X13352501Y-91120619D01*
X13352501Y-99959528D01*
X12894508Y-99501535D01*
X11926034Y-99100380D01*
X10877766Y-99100380D01*
X9909292Y-99501535D01*
X9168055Y-100242772D01*
X8766900Y-101211246D01*
X8766900Y-102259514D01*
X9168055Y-103227988D01*
X9909292Y-103969225D01*
X10877766Y-104370380D01*
X11926034Y-104370380D01*
X12894508Y-103969225D01*
X13352501Y-103511232D01*
X13352501Y-109352500D01*
X10910628Y-109352500D01*
X11048358Y-108976044D01*
X11022739Y-108365920D01*
X10838543Y-107921232D01*
X10582059Y-107834826D01*
X9681505Y-108735380D01*
X9695648Y-108749523D01*
X9516043Y-108929128D01*
X9501900Y-108914985D01*
X9487758Y-108929128D01*
X9308153Y-108749523D01*
X9322295Y-108735380D01*
X8421741Y-107834826D01*
X8306439Y-107873670D01*
X8303210Y-107865873D01*
X8092558Y-107655221D01*
X8601346Y-107655221D01*
X9501900Y-108555775D01*
X10402454Y-107655221D01*
X10316048Y-107398737D01*
X9742564Y-107188922D01*
X9132440Y-107214541D01*
X8687752Y-107398737D01*
X8601346Y-107655221D01*
X8092558Y-107655221D01*
X7871407Y-107434070D01*
X7307230Y-107200380D01*
X6696570Y-107200380D01*
X6132393Y-107434070D01*
X5751900Y-107814563D01*
X5371407Y-107434070D01*
X4807230Y-107200380D01*
X4196570Y-107200380D01*
X3632393Y-107434070D01*
X3200590Y-107865873D01*
X2966900Y-108430050D01*
X2966900Y-109040710D01*
X3096048Y-109352500D01*
X647500Y-109352500D01*
X647500Y-103507433D01*
X1109292Y-103969225D01*
X2077766Y-104370380D01*
X3126034Y-104370380D01*
X4094508Y-103969225D01*
X4835745Y-103227988D01*
X5236900Y-102259514D01*
X5236900Y-101211246D01*
X4835745Y-100242772D01*
X4094508Y-99501535D01*
X3126034Y-99100380D01*
X2077766Y-99100380D01*
X1109292Y-99501535D01*
X647500Y-99963327D01*
X647500Y-95400000D01*
X1002560Y-95400000D01*
X1002560Y-96600000D01*
X1051843Y-96847765D01*
X1192191Y-97057809D01*
X1402235Y-97198157D01*
X1650000Y-97247440D01*
X2850000Y-97247440D01*
X3097765Y-97198157D01*
X3219317Y-97116938D01*
X3504343Y-97235000D01*
X3995657Y-97235000D01*
X4449571Y-97046982D01*
X4796982Y-96699571D01*
X4985000Y-96245657D01*
X4985000Y-95754343D01*
X4796982Y-95300429D01*
X4449571Y-94953018D01*
X3995657Y-94765000D01*
X3504343Y-94765000D01*
X3219317Y-94883062D01*
X3097765Y-94801843D01*
X2850000Y-94752560D01*
X1650000Y-94752560D01*
X1402235Y-94801843D01*
X1192191Y-94942191D01*
X1051843Y-95152235D01*
X1002560Y-95400000D01*
X647500Y-95400000D01*
X647500Y-89451910D01*
X1056400Y-89451910D01*
X1056400Y-90048090D01*
X1284549Y-90598889D01*
X1706111Y-91020451D01*
X2256910Y-91248600D01*
X2853090Y-91248600D01*
X3403889Y-91020451D01*
X3825451Y-90598889D01*
X4053600Y-90048090D01*
X4053600Y-89451910D01*
X4001166Y-89325322D01*
X4865000Y-89325322D01*
X4865000Y-90174678D01*
X5190034Y-90959380D01*
X5790620Y-91559966D01*
X6575322Y-91885000D01*
X7424678Y-91885000D01*
X8209380Y-91559966D01*
X8809966Y-90959380D01*
X8943254Y-90637594D01*
X9326111Y-91020451D01*
X9876910Y-91248600D01*
X10473090Y-91248600D01*
X11023889Y-91020451D01*
X11445451Y-90598889D01*
X11461753Y-90559532D01*
X11661195Y-90624200D01*
X12535395Y-89750000D01*
X11661195Y-88875800D01*
X11461753Y-88940468D01*
X11445451Y-88901111D01*
X11023889Y-88479549D01*
X10473090Y-88251400D01*
X9876910Y-88251400D01*
X9326111Y-88479549D01*
X8943254Y-88862406D01*
X8809966Y-88540620D01*
X8209380Y-87940034D01*
X7424678Y-87615000D01*
X6575322Y-87615000D01*
X5790620Y-87940034D01*
X5190034Y-88540620D01*
X4865000Y-89325322D01*
X4001166Y-89325322D01*
X3825451Y-88901111D01*
X3403889Y-88479549D01*
X2853090Y-88251400D01*
X2256910Y-88251400D01*
X1706111Y-88479549D01*
X1284549Y-88901111D01*
X1056400Y-89451910D01*
X647500Y-89451910D01*
X647500Y-85053669D01*
X964561Y-85185000D01*
X1535439Y-85185000D01*
X2062862Y-84966534D01*
X2466534Y-84562862D01*
X2685000Y-84035439D01*
X2685000Y-83785750D01*
X10965000Y-83785750D01*
X10965000Y-84526309D01*
X11061673Y-84759698D01*
X11240301Y-84938327D01*
X11473690Y-85035000D01*
X12214250Y-85035000D01*
X12373000Y-84876250D01*
X12373000Y-83627000D01*
X11123750Y-83627000D01*
X10965000Y-83785750D01*
X2685000Y-83785750D01*
X2685000Y-83464561D01*
X2466534Y-82937138D01*
X2062862Y-82533466D01*
X1535439Y-82315000D01*
X964561Y-82315000D01*
X647500Y-82446331D01*
X647500Y-82053669D01*
X964561Y-82185000D01*
X1535439Y-82185000D01*
X2062862Y-81966534D01*
X2466534Y-81562862D01*
X2685000Y-81035439D01*
X2685000Y-80464561D01*
X2466534Y-79937138D01*
X2062862Y-79533466D01*
X1535439Y-79315000D01*
X964561Y-79315000D01*
X647500Y-79446331D01*
X647500Y-74701910D01*
X1056400Y-74701910D01*
X1056400Y-75298090D01*
X1284549Y-75848889D01*
X1706111Y-76270451D01*
X2256910Y-76498600D01*
X2853090Y-76498600D01*
X3403889Y-76270451D01*
X3825451Y-75848889D01*
X4053600Y-75298090D01*
X4053600Y-74701910D01*
X4001166Y-74575322D01*
X4865000Y-74575322D01*
X4865000Y-75424678D01*
X5190034Y-76209380D01*
X5790620Y-76809966D01*
X6575322Y-77135000D01*
X7424678Y-77135000D01*
X8209380Y-76809966D01*
X8809966Y-76209380D01*
X8943254Y-75887594D01*
X9326111Y-76270451D01*
X9876910Y-76498600D01*
X10473090Y-76498600D01*
X11023889Y-76270451D01*
X11445451Y-75848889D01*
X11461753Y-75809532D01*
X11661195Y-75874200D01*
X12535395Y-75000000D01*
X11661195Y-74125800D01*
X11461753Y-74190468D01*
X11445451Y-74151111D01*
X11023889Y-73729549D01*
X10473090Y-73501400D01*
X9876910Y-73501400D01*
X9326111Y-73729549D01*
X8943254Y-74112406D01*
X8809966Y-73790620D01*
X8209380Y-73190034D01*
X7424678Y-72865000D01*
X6575322Y-72865000D01*
X5790620Y-73190034D01*
X5190034Y-73790620D01*
X4865000Y-74575322D01*
X4001166Y-74575322D01*
X3825451Y-74151111D01*
X3403889Y-73729549D01*
X2853090Y-73501400D01*
X2256910Y-73501400D01*
X1706111Y-73729549D01*
X1284549Y-74151111D01*
X1056400Y-74701910D01*
X647500Y-74701910D01*
X647500Y-67964561D01*
X815000Y-67964561D01*
X815000Y-68535439D01*
X1033466Y-69062862D01*
X1437138Y-69466534D01*
X1964561Y-69685000D01*
X2535439Y-69685000D01*
X3062862Y-69466534D01*
X3466534Y-69062862D01*
X3469479Y-69055750D01*
X5465000Y-69055750D01*
X5465000Y-69796309D01*
X5561673Y-70029698D01*
X5740301Y-70208327D01*
X5973690Y-70305000D01*
X6714250Y-70305000D01*
X6873000Y-70146250D01*
X6873000Y-68897000D01*
X7127000Y-68897000D01*
X7127000Y-70146250D01*
X7285750Y-70305000D01*
X8026310Y-70305000D01*
X8259699Y-70208327D01*
X8438327Y-70029698D01*
X8535000Y-69796309D01*
X8535000Y-69055750D01*
X8376250Y-68897000D01*
X7127000Y-68897000D01*
X6873000Y-68897000D01*
X5623750Y-68897000D01*
X5465000Y-69055750D01*
X3469479Y-69055750D01*
X3685000Y-68535439D01*
X3685000Y-67964561D01*
X3631140Y-67834531D01*
X3904718Y-67888949D01*
X4187384Y-67888949D01*
X4605960Y-67805689D01*
X5080628Y-67488526D01*
X5397791Y-67013858D01*
X5483900Y-66580959D01*
X5698690Y-67099507D01*
X5875044Y-67275861D01*
X5740301Y-67331673D01*
X5561673Y-67510302D01*
X5465000Y-67743691D01*
X5465000Y-68484250D01*
X5623750Y-68643000D01*
X6873000Y-68643000D01*
X6873000Y-68623000D01*
X7127000Y-68623000D01*
X7127000Y-68643000D01*
X8376250Y-68643000D01*
X8535000Y-68484250D01*
X8535000Y-67743691D01*
X8438327Y-67510302D01*
X8259699Y-67331673D01*
X8124956Y-67275861D01*
X8301310Y-67099507D01*
X8535000Y-66535330D01*
X8535000Y-65924670D01*
X8301310Y-65360493D01*
X7869507Y-64928690D01*
X7305330Y-64695000D01*
X6694670Y-64695000D01*
X6130493Y-64928690D01*
X5698690Y-65360493D01*
X5465000Y-65924670D01*
X5465000Y-66231922D01*
X5397791Y-65894040D01*
X5080628Y-65419372D01*
X4605960Y-65102209D01*
X4187384Y-65018949D01*
X3904718Y-65018949D01*
X3486142Y-65102209D01*
X3011474Y-65419372D01*
X2694311Y-65894040D01*
X2582938Y-66453949D01*
X2665469Y-66868860D01*
X2535439Y-66815000D01*
X1964561Y-66815000D01*
X1437138Y-67033466D01*
X1033466Y-67437138D01*
X815000Y-67964561D01*
X647500Y-67964561D01*
X647500Y-59951910D01*
X1056400Y-59951910D01*
X1056400Y-60548090D01*
X1284549Y-61098889D01*
X1706111Y-61520451D01*
X2256910Y-61748600D01*
X2853090Y-61748600D01*
X3403889Y-61520451D01*
X3825451Y-61098889D01*
X4053600Y-60548090D01*
X4053600Y-59951910D01*
X3825451Y-59401111D01*
X3403889Y-58979549D01*
X2853090Y-58751400D01*
X2256910Y-58751400D01*
X1706111Y-58979549D01*
X1284549Y-59401111D01*
X1056400Y-59951910D01*
X647500Y-59951910D01*
X647500Y-58377000D01*
X5942798Y-58377000D01*
X5790620Y-58440034D01*
X5790620Y-58440034D01*
G37*
X5790620Y-58440034D02*
X5190034Y-59040620D01*
X4865000Y-59825322D01*
X4865000Y-60674678D01*
X5190034Y-61459380D01*
X5790620Y-62059966D01*
X6575322Y-62385000D01*
X7424678Y-62385000D01*
X8209380Y-62059966D01*
X8809966Y-61459380D01*
X8943254Y-61137594D01*
X9326111Y-61520451D01*
X9876910Y-61748600D01*
X10473090Y-61748600D01*
X11023889Y-61520451D01*
X11445451Y-61098889D01*
X11461753Y-61059532D01*
X11661195Y-61124200D01*
X12535395Y-60250000D01*
X11661195Y-59375800D01*
X11461753Y-59440468D01*
X11445451Y-59401111D01*
X11023889Y-58979549D01*
X10473090Y-58751400D01*
X9876910Y-58751400D01*
X9326111Y-58979549D01*
X8943254Y-59362406D01*
X8809966Y-59040620D01*
X8209380Y-58440034D01*
X8057202Y-58377000D01*
X13352501Y-58377000D01*
X13352501Y-58887211D01*
X12946970Y-58739752D01*
X12351365Y-58765942D01*
X11922741Y-58943484D01*
X11840800Y-59196195D01*
X12715000Y-60070395D01*
X12729143Y-60056253D01*
X12908748Y-60235858D01*
X12894605Y-60250000D01*
X12908748Y-60264143D01*
X12729143Y-60443748D01*
X12715000Y-60429605D01*
X11840800Y-61303805D01*
X11922741Y-61556516D01*
X12483030Y-61760248D01*
X13078635Y-61734058D01*
X13352501Y-61620619D01*
X13352501Y-66073105D01*
X13062862Y-65783466D01*
X12535439Y-65565000D01*
X11964561Y-65565000D01*
X11437138Y-65783466D01*
X11033466Y-66187138D01*
X10815000Y-66714561D01*
X10815000Y-67285439D01*
X10868860Y-67415469D01*
X10595282Y-67361051D01*
X10312616Y-67361051D01*
X9894040Y-67444311D01*
X9419372Y-67761474D01*
X9102209Y-68236142D01*
X8990836Y-68796051D01*
X9102209Y-69355960D01*
X9419372Y-69830628D01*
X9894040Y-70147791D01*
X10312616Y-70231051D01*
X10595282Y-70231051D01*
X11013858Y-70147791D01*
X11488526Y-69830628D01*
X11805689Y-69355960D01*
X11917062Y-68796051D01*
X11834531Y-68381140D01*
X11964561Y-68435000D01*
X12535439Y-68435000D01*
X13062862Y-68216534D01*
X13352501Y-67926895D01*
X13352501Y-73637211D01*
X12946970Y-73489752D01*
X12351365Y-73515942D01*
X11922741Y-73693484D01*
X11840800Y-73946195D01*
X12715000Y-74820395D01*
X12729143Y-74806253D01*
X12908748Y-74985858D01*
X12894605Y-75000000D01*
X12908748Y-75014143D01*
X12729143Y-75193748D01*
X12715000Y-75179605D01*
X11840800Y-76053805D01*
X11922741Y-76306516D01*
X12483030Y-76510248D01*
X13078635Y-76484058D01*
X13352501Y-76370619D01*
X13352501Y-79651646D01*
X12805330Y-79425000D01*
X12194670Y-79425000D01*
X11630493Y-79658690D01*
X11198690Y-80090493D01*
X10965000Y-80654670D01*
X10965000Y-81265330D01*
X11198690Y-81829507D01*
X11375044Y-82005861D01*
X11240301Y-82061673D01*
X11061673Y-82240302D01*
X10965000Y-82473691D01*
X10965000Y-83214250D01*
X11123750Y-83373000D01*
X12373000Y-83373000D01*
X12373000Y-83353000D01*
X12627000Y-83353000D01*
X12627000Y-83373000D01*
X12647000Y-83373000D01*
X12647000Y-83627000D01*
X12627000Y-83627000D01*
X12627000Y-84876250D01*
X12785750Y-85035000D01*
X13352501Y-85035000D01*
X13352501Y-88387211D01*
X12946970Y-88239752D01*
X12351365Y-88265942D01*
X11922741Y-88443484D01*
X11840800Y-88696195D01*
X12715000Y-89570395D01*
X12729143Y-89556253D01*
X12908748Y-89735858D01*
X12894605Y-89750000D01*
X12908748Y-89764143D01*
X12729143Y-89943748D01*
X12715000Y-89929605D01*
X11840800Y-90803805D01*
X11922741Y-91056516D01*
X12483030Y-91260248D01*
X13078635Y-91234058D01*
X13352501Y-91120619D01*
X13352501Y-99959528D01*
X12894508Y-99501535D01*
X11926034Y-99100380D01*
X10877766Y-99100380D01*
X9909292Y-99501535D01*
X9168055Y-100242772D01*
X8766900Y-101211246D01*
X8766900Y-102259514D01*
X9168055Y-103227988D01*
X9909292Y-103969225D01*
X10877766Y-104370380D01*
X11926034Y-104370380D01*
X12894508Y-103969225D01*
X13352501Y-103511232D01*
X13352501Y-109352500D01*
X10910628Y-109352500D01*
X11048358Y-108976044D01*
X11022739Y-108365920D01*
X10838543Y-107921232D01*
X10582059Y-107834826D01*
X9681505Y-108735380D01*
X9695648Y-108749523D01*
X9516043Y-108929128D01*
X9501900Y-108914985D01*
X9487758Y-108929128D01*
X9308153Y-108749523D01*
X9322295Y-108735380D01*
X8421741Y-107834826D01*
X8306439Y-107873670D01*
X8303210Y-107865873D01*
X8092558Y-107655221D01*
X8601346Y-107655221D01*
X9501900Y-108555775D01*
X10402454Y-107655221D01*
X10316048Y-107398737D01*
X9742564Y-107188922D01*
X9132440Y-107214541D01*
X8687752Y-107398737D01*
X8601346Y-107655221D01*
X8092558Y-107655221D01*
X7871407Y-107434070D01*
X7307230Y-107200380D01*
X6696570Y-107200380D01*
X6132393Y-107434070D01*
X5751900Y-107814563D01*
X5371407Y-107434070D01*
X4807230Y-107200380D01*
X4196570Y-107200380D01*
X3632393Y-107434070D01*
X3200590Y-107865873D01*
X2966900Y-108430050D01*
X2966900Y-109040710D01*
X3096048Y-109352500D01*
X647500Y-109352500D01*
X647500Y-103507433D01*
X1109292Y-103969225D01*
X2077766Y-104370380D01*
X3126034Y-104370380D01*
X4094508Y-103969225D01*
X4835745Y-103227988D01*
X5236900Y-102259514D01*
X5236900Y-101211246D01*
X4835745Y-100242772D01*
X4094508Y-99501535D01*
X3126034Y-99100380D01*
X2077766Y-99100380D01*
X1109292Y-99501535D01*
X647500Y-99963327D01*
X647500Y-95400000D01*
X1002560Y-95400000D01*
X1002560Y-96600000D01*
X1051843Y-96847765D01*
X1192191Y-97057809D01*
X1402235Y-97198157D01*
X1650000Y-97247440D01*
X2850000Y-97247440D01*
X3097765Y-97198157D01*
X3219317Y-97116938D01*
X3504343Y-97235000D01*
X3995657Y-97235000D01*
X4449571Y-97046982D01*
X4796982Y-96699571D01*
X4985000Y-96245657D01*
X4985000Y-95754343D01*
X4796982Y-95300429D01*
X4449571Y-94953018D01*
X3995657Y-94765000D01*
X3504343Y-94765000D01*
X3219317Y-94883062D01*
X3097765Y-94801843D01*
X2850000Y-94752560D01*
X1650000Y-94752560D01*
X1402235Y-94801843D01*
X1192191Y-94942191D01*
X1051843Y-95152235D01*
X1002560Y-95400000D01*
X647500Y-95400000D01*
X647500Y-89451910D01*
X1056400Y-89451910D01*
X1056400Y-90048090D01*
X1284549Y-90598889D01*
X1706111Y-91020451D01*
X2256910Y-91248600D01*
X2853090Y-91248600D01*
X3403889Y-91020451D01*
X3825451Y-90598889D01*
X4053600Y-90048090D01*
X4053600Y-89451910D01*
X4001166Y-89325322D01*
X4865000Y-89325322D01*
X4865000Y-90174678D01*
X5190034Y-90959380D01*
X5790620Y-91559966D01*
X6575322Y-91885000D01*
X7424678Y-91885000D01*
X8209380Y-91559966D01*
X8809966Y-90959380D01*
X8943254Y-90637594D01*
X9326111Y-91020451D01*
X9876910Y-91248600D01*
X10473090Y-91248600D01*
X11023889Y-91020451D01*
X11445451Y-90598889D01*
X11461753Y-90559532D01*
X11661195Y-90624200D01*
X12535395Y-89750000D01*
X11661195Y-88875800D01*
X11461753Y-88940468D01*
X11445451Y-88901111D01*
X11023889Y-88479549D01*
X10473090Y-88251400D01*
X9876910Y-88251400D01*
X9326111Y-88479549D01*
X8943254Y-88862406D01*
X8809966Y-88540620D01*
X8209380Y-87940034D01*
X7424678Y-87615000D01*
X6575322Y-87615000D01*
X5790620Y-87940034D01*
X5190034Y-88540620D01*
X4865000Y-89325322D01*
X4001166Y-89325322D01*
X3825451Y-88901111D01*
X3403889Y-88479549D01*
X2853090Y-88251400D01*
X2256910Y-88251400D01*
X1706111Y-88479549D01*
X1284549Y-88901111D01*
X1056400Y-89451910D01*
X647500Y-89451910D01*
X647500Y-85053669D01*
X964561Y-85185000D01*
X1535439Y-85185000D01*
X2062862Y-84966534D01*
X2466534Y-84562862D01*
X2685000Y-84035439D01*
X2685000Y-83785750D01*
X10965000Y-83785750D01*
X10965000Y-84526309D01*
X11061673Y-84759698D01*
X11240301Y-84938327D01*
X11473690Y-85035000D01*
X12214250Y-85035000D01*
X12373000Y-84876250D01*
X12373000Y-83627000D01*
X11123750Y-83627000D01*
X10965000Y-83785750D01*
X2685000Y-83785750D01*
X2685000Y-83464561D01*
X2466534Y-82937138D01*
X2062862Y-82533466D01*
X1535439Y-82315000D01*
X964561Y-82315000D01*
X647500Y-82446331D01*
X647500Y-82053669D01*
X964561Y-82185000D01*
X1535439Y-82185000D01*
X2062862Y-81966534D01*
X2466534Y-81562862D01*
X2685000Y-81035439D01*
X2685000Y-80464561D01*
X2466534Y-79937138D01*
X2062862Y-79533466D01*
X1535439Y-79315000D01*
X964561Y-79315000D01*
X647500Y-79446331D01*
X647500Y-74701910D01*
X1056400Y-74701910D01*
X1056400Y-75298090D01*
X1284549Y-75848889D01*
X1706111Y-76270451D01*
X2256910Y-76498600D01*
X2853090Y-76498600D01*
X3403889Y-76270451D01*
X3825451Y-75848889D01*
X4053600Y-75298090D01*
X4053600Y-74701910D01*
X4001166Y-74575322D01*
X4865000Y-74575322D01*
X4865000Y-75424678D01*
X5190034Y-76209380D01*
X5790620Y-76809966D01*
X6575322Y-77135000D01*
X7424678Y-77135000D01*
X8209380Y-76809966D01*
X8809966Y-76209380D01*
X8943254Y-75887594D01*
X9326111Y-76270451D01*
X9876910Y-76498600D01*
X10473090Y-76498600D01*
X11023889Y-76270451D01*
X11445451Y-75848889D01*
X11461753Y-75809532D01*
X11661195Y-75874200D01*
X12535395Y-75000000D01*
X11661195Y-74125800D01*
X11461753Y-74190468D01*
X11445451Y-74151111D01*
X11023889Y-73729549D01*
X10473090Y-73501400D01*
X9876910Y-73501400D01*
X9326111Y-73729549D01*
X8943254Y-74112406D01*
X8809966Y-73790620D01*
X8209380Y-73190034D01*
X7424678Y-72865000D01*
X6575322Y-72865000D01*
X5790620Y-73190034D01*
X5190034Y-73790620D01*
X4865000Y-74575322D01*
X4001166Y-74575322D01*
X3825451Y-74151111D01*
X3403889Y-73729549D01*
X2853090Y-73501400D01*
X2256910Y-73501400D01*
X1706111Y-73729549D01*
X1284549Y-74151111D01*
X1056400Y-74701910D01*
X647500Y-74701910D01*
X647500Y-67964561D01*
X815000Y-67964561D01*
X815000Y-68535439D01*
X1033466Y-69062862D01*
X1437138Y-69466534D01*
X1964561Y-69685000D01*
X2535439Y-69685000D01*
X3062862Y-69466534D01*
X3466534Y-69062862D01*
X3469479Y-69055750D01*
X5465000Y-69055750D01*
X5465000Y-69796309D01*
X5561673Y-70029698D01*
X5740301Y-70208327D01*
X5973690Y-70305000D01*
X6714250Y-70305000D01*
X6873000Y-70146250D01*
X6873000Y-68897000D01*
X7127000Y-68897000D01*
X7127000Y-70146250D01*
X7285750Y-70305000D01*
X8026310Y-70305000D01*
X8259699Y-70208327D01*
X8438327Y-70029698D01*
X8535000Y-69796309D01*
X8535000Y-69055750D01*
X8376250Y-68897000D01*
X7127000Y-68897000D01*
X6873000Y-68897000D01*
X5623750Y-68897000D01*
X5465000Y-69055750D01*
X3469479Y-69055750D01*
X3685000Y-68535439D01*
X3685000Y-67964561D01*
X3631140Y-67834531D01*
X3904718Y-67888949D01*
X4187384Y-67888949D01*
X4605960Y-67805689D01*
X5080628Y-67488526D01*
X5397791Y-67013858D01*
X5483900Y-66580959D01*
X5698690Y-67099507D01*
X5875044Y-67275861D01*
X5740301Y-67331673D01*
X5561673Y-67510302D01*
X5465000Y-67743691D01*
X5465000Y-68484250D01*
X5623750Y-68643000D01*
X6873000Y-68643000D01*
X6873000Y-68623000D01*
X7127000Y-68623000D01*
X7127000Y-68643000D01*
X8376250Y-68643000D01*
X8535000Y-68484250D01*
X8535000Y-67743691D01*
X8438327Y-67510302D01*
X8259699Y-67331673D01*
X8124956Y-67275861D01*
X8301310Y-67099507D01*
X8535000Y-66535330D01*
X8535000Y-65924670D01*
X8301310Y-65360493D01*
X7869507Y-64928690D01*
X7305330Y-64695000D01*
X6694670Y-64695000D01*
X6130493Y-64928690D01*
X5698690Y-65360493D01*
X5465000Y-65924670D01*
X5465000Y-66231922D01*
X5397791Y-65894040D01*
X5080628Y-65419372D01*
X4605960Y-65102209D01*
X4187384Y-65018949D01*
X3904718Y-65018949D01*
X3486142Y-65102209D01*
X3011474Y-65419372D01*
X2694311Y-65894040D01*
X2582938Y-66453949D01*
X2665469Y-66868860D01*
X2535439Y-66815000D01*
X1964561Y-66815000D01*
X1437138Y-67033466D01*
X1033466Y-67437138D01*
X815000Y-67964561D01*
X647500Y-67964561D01*
X647500Y-59951910D01*
X1056400Y-59951910D01*
X1056400Y-60548090D01*
X1284549Y-61098889D01*
X1706111Y-61520451D01*
X2256910Y-61748600D01*
X2853090Y-61748600D01*
X3403889Y-61520451D01*
X3825451Y-61098889D01*
X4053600Y-60548090D01*
X4053600Y-59951910D01*
X3825451Y-59401111D01*
X3403889Y-58979549D01*
X2853090Y-58751400D01*
X2256910Y-58751400D01*
X1706111Y-58979549D01*
X1284549Y-59401111D01*
X1056400Y-59951910D01*
X647500Y-59951910D01*
X647500Y-58377000D01*
X5942798Y-58377000D01*
X5790620Y-58440034D01*
M02*
