G04 #@! TF.GenerationSoftware,KiCad,Pcbnew,(2018-02-10 revision a04965c)-master*
G04 #@! TF.CreationDate,2018-04-19T15:59:02-05:00*
G04 #@! TF.ProjectId,twotone,74776F746F6E652E6B696361645F7063,rev?*
G04 #@! TF.SameCoordinates,Original*
G04 #@! TF.FileFunction,Legend,Top*
G04 #@! TF.FilePolarity,Positive*
%FSLAX46Y46*%
G04 Gerber Fmt 4.6, Leading zero omitted, Abs format (unit mm)*
G04 Created by KiCad (PCBNEW (2018-02-10 revision a04965c)-master) date Thursday, April 19, 2018 at 03:59:02 PM*
%MOMM*%
%LPD*%
G01*
G04 APERTURE LIST*
%ADD10C,0.120000*%
%ADD11C,0.150000*%
G04 APERTURE END LIST*
D10*
X5921392Y-10827665D02*
G75*
G03X5764484Y-14060000I1078608J-1672335D01*
G01*
X8078608Y-10827665D02*
G75*
G02X8235516Y-14060000I-1078608J-1672335D01*
G01*
X5920163Y-11458870D02*
G75*
G03X5920000Y-13540961I1079837J-1041130D01*
G01*
X8079837Y-11458870D02*
G75*
G02X8080000Y-13540961I-1079837J-1041130D01*
G01*
X5764000Y-14060000D02*
X5920000Y-14060000D01*
X8080000Y-14060000D02*
X8236000Y-14060000D01*
X5921392Y-65827665D02*
G75*
G03X5764484Y-69060000I1078608J-1672335D01*
G01*
X8078608Y-65827665D02*
G75*
G02X8235516Y-69060000I-1078608J-1672335D01*
G01*
X5920163Y-66458870D02*
G75*
G03X5920000Y-68540961I1079837J-1041130D01*
G01*
X8079837Y-66458870D02*
G75*
G02X8080000Y-68540961I-1079837J-1041130D01*
G01*
X5764000Y-69060000D02*
X5920000Y-69060000D01*
X8080000Y-69060000D02*
X8236000Y-69060000D01*
D11*
X10000000Y-89750000D02*
G75*
G03X10000000Y-89750000I-3000000J0D01*
G01*
X11500000Y-94250000D02*
X1000000Y-94250000D01*
X11500000Y-85250000D02*
X11500000Y-94250000D01*
X1000000Y-85250000D02*
X11500000Y-85250000D01*
X1000000Y-94250000D02*
X1000000Y-85250000D01*
X10000000Y-75000000D02*
G75*
G03X10000000Y-75000000I-3000000J0D01*
G01*
X11500000Y-79500000D02*
X1000000Y-79500000D01*
X11500000Y-70500000D02*
X11500000Y-79500000D01*
X1000000Y-70500000D02*
X11500000Y-70500000D01*
X1000000Y-79500000D02*
X1000000Y-70500000D01*
X10000000Y-60250000D02*
G75*
G03X10000000Y-60250000I-3000000J0D01*
G01*
X11500000Y-64750000D02*
X1000000Y-64750000D01*
X11500000Y-55750000D02*
X11500000Y-64750000D01*
X1000000Y-55750000D02*
X11500000Y-55750000D01*
X1000000Y-64750000D02*
X1000000Y-55750000D01*
X10000000Y-34750000D02*
G75*
G03X10000000Y-34750000I-3000000J0D01*
G01*
X11500000Y-39250000D02*
X1000000Y-39250000D01*
X11500000Y-30250000D02*
X11500000Y-39250000D01*
X1000000Y-30250000D02*
X11500000Y-30250000D01*
X1000000Y-39250000D02*
X1000000Y-30250000D01*
X10000000Y-20000000D02*
G75*
G03X10000000Y-20000000I-3000000J0D01*
G01*
X11500000Y-24500000D02*
X1000000Y-24500000D01*
X11500000Y-15500000D02*
X11500000Y-24500000D01*
X1000000Y-15500000D02*
X11500000Y-15500000D01*
X1000000Y-24500000D02*
X1000000Y-15500000D01*
X10000000Y-5250000D02*
G75*
G03X10000000Y-5250000I-3000000J0D01*
G01*
X11500000Y-9750000D02*
X1000000Y-9750000D01*
X11500000Y-750000D02*
X11500000Y-9750000D01*
X1000000Y-750000D02*
X11500000Y-750000D01*
X1000000Y-9750000D02*
X1000000Y-750000D01*
D10*
X4239468Y-45063398D02*
G75*
G02X9763900Y-45062380I2762432J-1171982D01*
G01*
X9299653Y-48163675D02*
G75*
G02X4703900Y-48163380I-2297753J1928295D01*
G01*
X2040900Y-52795380D02*
X2040900Y-48929380D01*
X2040900Y-44540380D02*
X2040900Y-40675380D01*
X11961900Y-52795380D02*
X11961900Y-48929380D01*
X11961900Y-44540380D02*
X11961900Y-40675380D01*
X2040900Y-52795380D02*
X3676900Y-52795380D01*
X5326900Y-52795380D02*
X6176900Y-52795380D01*
X7826900Y-52795380D02*
X8676900Y-52795380D01*
X10326900Y-52795380D02*
X11961900Y-52795380D01*
X2040900Y-40675380D02*
X11961900Y-40675380D01*
X4239468Y-100063398D02*
G75*
G02X9763900Y-100062380I2762432J-1171982D01*
G01*
X9299653Y-103163675D02*
G75*
G02X4703900Y-103163380I-2297753J1928295D01*
G01*
X2040900Y-107795380D02*
X2040900Y-103929380D01*
X2040900Y-99540380D02*
X2040900Y-95675380D01*
X11961900Y-107795380D02*
X11961900Y-103929380D01*
X11961900Y-99540380D02*
X11961900Y-95675380D01*
X2040900Y-107795380D02*
X3676900Y-107795380D01*
X5326900Y-107795380D02*
X6176900Y-107795380D01*
X7826900Y-107795380D02*
X8676900Y-107795380D01*
X10326900Y-107795380D02*
X11961900Y-107795380D01*
X2040900Y-95675380D02*
X11961900Y-95675380D01*
D11*
X6261904Y-9972380D02*
X6261904Y-8972380D01*
X6500000Y-8972380D01*
X6642857Y-9020000D01*
X6738095Y-9115238D01*
X6785714Y-9210476D01*
X6833333Y-9400952D01*
X6833333Y-9543809D01*
X6785714Y-9734285D01*
X6738095Y-9829523D01*
X6642857Y-9924761D01*
X6500000Y-9972380D01*
X6261904Y-9972380D01*
X7785714Y-9972380D02*
X7214285Y-9972380D01*
X7500000Y-9972380D02*
X7500000Y-8972380D01*
X7404761Y-9115238D01*
X7309523Y-9210476D01*
X7214285Y-9258095D01*
X6261904Y-64972380D02*
X6261904Y-63972380D01*
X6500000Y-63972380D01*
X6642857Y-64020000D01*
X6738095Y-64115238D01*
X6785714Y-64210476D01*
X6833333Y-64400952D01*
X6833333Y-64543809D01*
X6785714Y-64734285D01*
X6738095Y-64829523D01*
X6642857Y-64924761D01*
X6500000Y-64972380D01*
X6261904Y-64972380D01*
X7166666Y-63972380D02*
X7785714Y-63972380D01*
X7452380Y-64353333D01*
X7595238Y-64353333D01*
X7690476Y-64400952D01*
X7738095Y-64448571D01*
X7785714Y-64543809D01*
X7785714Y-64781904D01*
X7738095Y-64877142D01*
X7690476Y-64924761D01*
X7595238Y-64972380D01*
X7309523Y-64972380D01*
X7214285Y-64924761D01*
X7166666Y-64877142D01*
X9534761Y-52202380D02*
X9201428Y-51726190D01*
X8963333Y-52202380D02*
X8963333Y-51202380D01*
X9344285Y-51202380D01*
X9439523Y-51250000D01*
X9487142Y-51297619D01*
X9534761Y-51392857D01*
X9534761Y-51535714D01*
X9487142Y-51630952D01*
X9439523Y-51678571D01*
X9344285Y-51726190D01*
X8963333Y-51726190D01*
X9820476Y-51202380D02*
X10153809Y-52202380D01*
X10487142Y-51202380D01*
X11344285Y-52202380D02*
X10772857Y-52202380D01*
X11058571Y-52202380D02*
X11058571Y-51202380D01*
X10963333Y-51345238D01*
X10868095Y-51440476D01*
X10772857Y-51488095D01*
X9534761Y-107202380D02*
X9201428Y-106726190D01*
X8963333Y-107202380D02*
X8963333Y-106202380D01*
X9344285Y-106202380D01*
X9439523Y-106250000D01*
X9487142Y-106297619D01*
X9534761Y-106392857D01*
X9534761Y-106535714D01*
X9487142Y-106630952D01*
X9439523Y-106678571D01*
X9344285Y-106726190D01*
X8963333Y-106726190D01*
X9820476Y-106202380D02*
X10153809Y-107202380D01*
X10487142Y-106202380D01*
X10772857Y-106297619D02*
X10820476Y-106250000D01*
X10915714Y-106202380D01*
X11153809Y-106202380D01*
X11249047Y-106250000D01*
X11296666Y-106297619D01*
X11344285Y-106392857D01*
X11344285Y-106488095D01*
X11296666Y-106630952D01*
X10725238Y-107202380D01*
X11344285Y-107202380D01*
M02*
