G04 #@! TF.GenerationSoftware,KiCad,Pcbnew,(2018-02-10 revision a04965c)-master*
G04 #@! TF.CreationDate,2018-05-16T11:38:03-05:00*
G04 #@! TF.ProjectId,twotone_rev2_panel,74776F746F6E655F726576325F70616E,rev?*
G04 #@! TF.SameCoordinates,Original*
G04 #@! TF.FileFunction,Copper,L1,Top,Signal*
G04 #@! TF.FilePolarity,Positive*
%FSLAX46Y46*%
G04 Gerber Fmt 4.6, Leading zero omitted, Abs format (unit mm)*
G04 Created by KiCad (PCBNEW (2018-02-10 revision a04965c)-master) date Wednesday, May 16, 2018 at 11:38:03 AM*
%MOMM*%
%LPD*%
G01*
G04 APERTURE LIST*
%ADD10C,3.200000*%
%ADD11C,6.200000*%
%ADD12C,10.000000*%
%ADD13C,0.254000*%
G04 APERTURE END LIST*
D10*
X7500000Y-3000000D03*
X7500000Y-125500000D03*
D11*
X7500000Y-14490000D03*
X7500000Y-110490000D03*
X7500000Y-98990000D03*
X7500000Y-84240000D03*
X7500000Y-69490000D03*
X7500000Y-55490000D03*
X7500000Y-29240000D03*
D12*
X7500000Y-43990000D03*
D10*
X7500000Y-21750000D03*
X7500000Y-76750000D03*
D13*
G36*
X14773001Y-128273000D02*
X227000Y-128273000D01*
X227000Y-125156478D01*
X5773000Y-125156478D01*
X5773000Y-125843522D01*
X6035920Y-126478267D01*
X6521733Y-126964080D01*
X7156478Y-127227000D01*
X7843522Y-127227000D01*
X8478267Y-126964080D01*
X8964080Y-126478267D01*
X9227000Y-125843522D01*
X9227000Y-125156478D01*
X8964080Y-124521733D01*
X8478267Y-124035920D01*
X7843522Y-123773000D01*
X7156478Y-123773000D01*
X6521733Y-124035920D01*
X6035920Y-124521733D01*
X5773000Y-125156478D01*
X227000Y-125156478D01*
X227000Y-109848110D01*
X4273000Y-109848110D01*
X4273000Y-111131890D01*
X4764281Y-112317949D01*
X5672051Y-113225719D01*
X6858110Y-113717000D01*
X8141890Y-113717000D01*
X9327949Y-113225719D01*
X10235719Y-112317949D01*
X10727000Y-111131890D01*
X10727000Y-109848110D01*
X10235719Y-108662051D01*
X9327949Y-107754281D01*
X8141890Y-107263000D01*
X6858110Y-107263000D01*
X5672051Y-107754281D01*
X4764281Y-108662051D01*
X4273000Y-109848110D01*
X227000Y-109848110D01*
X227000Y-98348110D01*
X4273000Y-98348110D01*
X4273000Y-99631890D01*
X4764281Y-100817949D01*
X5672051Y-101725719D01*
X6858110Y-102217000D01*
X8141890Y-102217000D01*
X9327949Y-101725719D01*
X10235719Y-100817949D01*
X10727000Y-99631890D01*
X10727000Y-98348110D01*
X10235719Y-97162051D01*
X9327949Y-96254281D01*
X8141890Y-95763000D01*
X6858110Y-95763000D01*
X5672051Y-96254281D01*
X4764281Y-97162051D01*
X4273000Y-98348110D01*
X227000Y-98348110D01*
X227000Y-83598110D01*
X4273000Y-83598110D01*
X4273000Y-84881890D01*
X4764281Y-86067949D01*
X5672051Y-86975719D01*
X6858110Y-87467000D01*
X8141890Y-87467000D01*
X9327949Y-86975719D01*
X10235719Y-86067949D01*
X10727000Y-84881890D01*
X10727000Y-83598110D01*
X10235719Y-82412051D01*
X9327949Y-81504281D01*
X8141890Y-81013000D01*
X6858110Y-81013000D01*
X5672051Y-81504281D01*
X4764281Y-82412051D01*
X4273000Y-83598110D01*
X227000Y-83598110D01*
X227000Y-76406478D01*
X5773000Y-76406478D01*
X5773000Y-77093522D01*
X6035920Y-77728267D01*
X6521733Y-78214080D01*
X7156478Y-78477000D01*
X7843522Y-78477000D01*
X8478267Y-78214080D01*
X8964080Y-77728267D01*
X9227000Y-77093522D01*
X9227000Y-76406478D01*
X8964080Y-75771733D01*
X8478267Y-75285920D01*
X7843522Y-75023000D01*
X7156478Y-75023000D01*
X6521733Y-75285920D01*
X6035920Y-75771733D01*
X5773000Y-76406478D01*
X227000Y-76406478D01*
X227000Y-68848110D01*
X4273000Y-68848110D01*
X4273000Y-70131890D01*
X4764281Y-71317949D01*
X5672051Y-72225719D01*
X6858110Y-72717000D01*
X8141890Y-72717000D01*
X9327949Y-72225719D01*
X10235719Y-71317949D01*
X10727000Y-70131890D01*
X10727000Y-68848110D01*
X10235719Y-67662051D01*
X9327949Y-66754281D01*
X8141890Y-66263000D01*
X6858110Y-66263000D01*
X5672051Y-66754281D01*
X4764281Y-67662051D01*
X4273000Y-68848110D01*
X227000Y-68848110D01*
X227000Y-54848110D01*
X4273000Y-54848110D01*
X4273000Y-56131890D01*
X4764281Y-57317949D01*
X5672051Y-58225719D01*
X6858110Y-58717000D01*
X8141890Y-58717000D01*
X9327949Y-58225719D01*
X10235719Y-57317949D01*
X10727000Y-56131890D01*
X10727000Y-54848110D01*
X10235719Y-53662051D01*
X9327949Y-52754281D01*
X8141890Y-52263000D01*
X6858110Y-52263000D01*
X5672051Y-52754281D01*
X4764281Y-53662051D01*
X4273000Y-54848110D01*
X227000Y-54848110D01*
X227000Y-42970176D01*
X2373000Y-42970176D01*
X2373000Y-45009824D01*
X3153539Y-46894212D01*
X4595788Y-48336461D01*
X6480176Y-49117000D01*
X8519824Y-49117000D01*
X10404212Y-48336461D01*
X11846461Y-46894212D01*
X12627000Y-45009824D01*
X12627000Y-42970176D01*
X11846461Y-41085788D01*
X10404212Y-39643539D01*
X8519824Y-38863000D01*
X6480176Y-38863000D01*
X4595788Y-39643539D01*
X3153539Y-41085788D01*
X2373000Y-42970176D01*
X227000Y-42970176D01*
X227000Y-28598110D01*
X4273000Y-28598110D01*
X4273000Y-29881890D01*
X4764281Y-31067949D01*
X5672051Y-31975719D01*
X6858110Y-32467000D01*
X8141890Y-32467000D01*
X9327949Y-31975719D01*
X10235719Y-31067949D01*
X10727000Y-29881890D01*
X10727000Y-28598110D01*
X10235719Y-27412051D01*
X9327949Y-26504281D01*
X8141890Y-26013000D01*
X6858110Y-26013000D01*
X5672051Y-26504281D01*
X4764281Y-27412051D01*
X4273000Y-28598110D01*
X227000Y-28598110D01*
X227000Y-21406478D01*
X5773000Y-21406478D01*
X5773000Y-22093522D01*
X6035920Y-22728267D01*
X6521733Y-23214080D01*
X7156478Y-23477000D01*
X7843522Y-23477000D01*
X8478267Y-23214080D01*
X8964080Y-22728267D01*
X9227000Y-22093522D01*
X9227000Y-21406478D01*
X8964080Y-20771733D01*
X8478267Y-20285920D01*
X7843522Y-20023000D01*
X7156478Y-20023000D01*
X6521733Y-20285920D01*
X6035920Y-20771733D01*
X5773000Y-21406478D01*
X227000Y-21406478D01*
X227000Y-13848110D01*
X4273000Y-13848110D01*
X4273000Y-15131890D01*
X4764281Y-16317949D01*
X5672051Y-17225719D01*
X6858110Y-17717000D01*
X8141890Y-17717000D01*
X9327949Y-17225719D01*
X10235719Y-16317949D01*
X10727000Y-15131890D01*
X10727000Y-13848110D01*
X10235719Y-12662051D01*
X9327949Y-11754281D01*
X8141890Y-11263000D01*
X6858110Y-11263000D01*
X5672051Y-11754281D01*
X4764281Y-12662051D01*
X4273000Y-13848110D01*
X227000Y-13848110D01*
X227000Y-2656478D01*
X5773000Y-2656478D01*
X5773000Y-3343522D01*
X6035920Y-3978267D01*
X6521733Y-4464080D01*
X7156478Y-4727000D01*
X7843522Y-4727000D01*
X8478267Y-4464080D01*
X8964080Y-3978267D01*
X9227000Y-3343522D01*
X9227000Y-2656478D01*
X8964080Y-2021733D01*
X8478267Y-1535920D01*
X7843522Y-1273000D01*
X7156478Y-1273000D01*
X6521733Y-1535920D01*
X6035920Y-2021733D01*
X5773000Y-2656478D01*
X227000Y-2656478D01*
X227000Y-227000D01*
X14773000Y-227000D01*
X14773001Y-128273000D01*
X14773001Y-128273000D01*
G37*
X14773001Y-128273000D02*
X227000Y-128273000D01*
X227000Y-125156478D01*
X5773000Y-125156478D01*
X5773000Y-125843522D01*
X6035920Y-126478267D01*
X6521733Y-126964080D01*
X7156478Y-127227000D01*
X7843522Y-127227000D01*
X8478267Y-126964080D01*
X8964080Y-126478267D01*
X9227000Y-125843522D01*
X9227000Y-125156478D01*
X8964080Y-124521733D01*
X8478267Y-124035920D01*
X7843522Y-123773000D01*
X7156478Y-123773000D01*
X6521733Y-124035920D01*
X6035920Y-124521733D01*
X5773000Y-125156478D01*
X227000Y-125156478D01*
X227000Y-109848110D01*
X4273000Y-109848110D01*
X4273000Y-111131890D01*
X4764281Y-112317949D01*
X5672051Y-113225719D01*
X6858110Y-113717000D01*
X8141890Y-113717000D01*
X9327949Y-113225719D01*
X10235719Y-112317949D01*
X10727000Y-111131890D01*
X10727000Y-109848110D01*
X10235719Y-108662051D01*
X9327949Y-107754281D01*
X8141890Y-107263000D01*
X6858110Y-107263000D01*
X5672051Y-107754281D01*
X4764281Y-108662051D01*
X4273000Y-109848110D01*
X227000Y-109848110D01*
X227000Y-98348110D01*
X4273000Y-98348110D01*
X4273000Y-99631890D01*
X4764281Y-100817949D01*
X5672051Y-101725719D01*
X6858110Y-102217000D01*
X8141890Y-102217000D01*
X9327949Y-101725719D01*
X10235719Y-100817949D01*
X10727000Y-99631890D01*
X10727000Y-98348110D01*
X10235719Y-97162051D01*
X9327949Y-96254281D01*
X8141890Y-95763000D01*
X6858110Y-95763000D01*
X5672051Y-96254281D01*
X4764281Y-97162051D01*
X4273000Y-98348110D01*
X227000Y-98348110D01*
X227000Y-83598110D01*
X4273000Y-83598110D01*
X4273000Y-84881890D01*
X4764281Y-86067949D01*
X5672051Y-86975719D01*
X6858110Y-87467000D01*
X8141890Y-87467000D01*
X9327949Y-86975719D01*
X10235719Y-86067949D01*
X10727000Y-84881890D01*
X10727000Y-83598110D01*
X10235719Y-82412051D01*
X9327949Y-81504281D01*
X8141890Y-81013000D01*
X6858110Y-81013000D01*
X5672051Y-81504281D01*
X4764281Y-82412051D01*
X4273000Y-83598110D01*
X227000Y-83598110D01*
X227000Y-76406478D01*
X5773000Y-76406478D01*
X5773000Y-77093522D01*
X6035920Y-77728267D01*
X6521733Y-78214080D01*
X7156478Y-78477000D01*
X7843522Y-78477000D01*
X8478267Y-78214080D01*
X8964080Y-77728267D01*
X9227000Y-77093522D01*
X9227000Y-76406478D01*
X8964080Y-75771733D01*
X8478267Y-75285920D01*
X7843522Y-75023000D01*
X7156478Y-75023000D01*
X6521733Y-75285920D01*
X6035920Y-75771733D01*
X5773000Y-76406478D01*
X227000Y-76406478D01*
X227000Y-68848110D01*
X4273000Y-68848110D01*
X4273000Y-70131890D01*
X4764281Y-71317949D01*
X5672051Y-72225719D01*
X6858110Y-72717000D01*
X8141890Y-72717000D01*
X9327949Y-72225719D01*
X10235719Y-71317949D01*
X10727000Y-70131890D01*
X10727000Y-68848110D01*
X10235719Y-67662051D01*
X9327949Y-66754281D01*
X8141890Y-66263000D01*
X6858110Y-66263000D01*
X5672051Y-66754281D01*
X4764281Y-67662051D01*
X4273000Y-68848110D01*
X227000Y-68848110D01*
X227000Y-54848110D01*
X4273000Y-54848110D01*
X4273000Y-56131890D01*
X4764281Y-57317949D01*
X5672051Y-58225719D01*
X6858110Y-58717000D01*
X8141890Y-58717000D01*
X9327949Y-58225719D01*
X10235719Y-57317949D01*
X10727000Y-56131890D01*
X10727000Y-54848110D01*
X10235719Y-53662051D01*
X9327949Y-52754281D01*
X8141890Y-52263000D01*
X6858110Y-52263000D01*
X5672051Y-52754281D01*
X4764281Y-53662051D01*
X4273000Y-54848110D01*
X227000Y-54848110D01*
X227000Y-42970176D01*
X2373000Y-42970176D01*
X2373000Y-45009824D01*
X3153539Y-46894212D01*
X4595788Y-48336461D01*
X6480176Y-49117000D01*
X8519824Y-49117000D01*
X10404212Y-48336461D01*
X11846461Y-46894212D01*
X12627000Y-45009824D01*
X12627000Y-42970176D01*
X11846461Y-41085788D01*
X10404212Y-39643539D01*
X8519824Y-38863000D01*
X6480176Y-38863000D01*
X4595788Y-39643539D01*
X3153539Y-41085788D01*
X2373000Y-42970176D01*
X227000Y-42970176D01*
X227000Y-28598110D01*
X4273000Y-28598110D01*
X4273000Y-29881890D01*
X4764281Y-31067949D01*
X5672051Y-31975719D01*
X6858110Y-32467000D01*
X8141890Y-32467000D01*
X9327949Y-31975719D01*
X10235719Y-31067949D01*
X10727000Y-29881890D01*
X10727000Y-28598110D01*
X10235719Y-27412051D01*
X9327949Y-26504281D01*
X8141890Y-26013000D01*
X6858110Y-26013000D01*
X5672051Y-26504281D01*
X4764281Y-27412051D01*
X4273000Y-28598110D01*
X227000Y-28598110D01*
X227000Y-21406478D01*
X5773000Y-21406478D01*
X5773000Y-22093522D01*
X6035920Y-22728267D01*
X6521733Y-23214080D01*
X7156478Y-23477000D01*
X7843522Y-23477000D01*
X8478267Y-23214080D01*
X8964080Y-22728267D01*
X9227000Y-22093522D01*
X9227000Y-21406478D01*
X8964080Y-20771733D01*
X8478267Y-20285920D01*
X7843522Y-20023000D01*
X7156478Y-20023000D01*
X6521733Y-20285920D01*
X6035920Y-20771733D01*
X5773000Y-21406478D01*
X227000Y-21406478D01*
X227000Y-13848110D01*
X4273000Y-13848110D01*
X4273000Y-15131890D01*
X4764281Y-16317949D01*
X5672051Y-17225719D01*
X6858110Y-17717000D01*
X8141890Y-17717000D01*
X9327949Y-17225719D01*
X10235719Y-16317949D01*
X10727000Y-15131890D01*
X10727000Y-13848110D01*
X10235719Y-12662051D01*
X9327949Y-11754281D01*
X8141890Y-11263000D01*
X6858110Y-11263000D01*
X5672051Y-11754281D01*
X4764281Y-12662051D01*
X4273000Y-13848110D01*
X227000Y-13848110D01*
X227000Y-2656478D01*
X5773000Y-2656478D01*
X5773000Y-3343522D01*
X6035920Y-3978267D01*
X6521733Y-4464080D01*
X7156478Y-4727000D01*
X7843522Y-4727000D01*
X8478267Y-4464080D01*
X8964080Y-3978267D01*
X9227000Y-3343522D01*
X9227000Y-2656478D01*
X8964080Y-2021733D01*
X8478267Y-1535920D01*
X7843522Y-1273000D01*
X7156478Y-1273000D01*
X6521733Y-1535920D01*
X6035920Y-2021733D01*
X5773000Y-2656478D01*
X227000Y-2656478D01*
X227000Y-227000D01*
X14773000Y-227000D01*
X14773001Y-128273000D01*
M02*
