G04 #@! TF.GenerationSoftware,KiCad,Pcbnew,(2018-02-10 revision a04965c)-master*
G04 #@! TF.CreationDate,2018-03-20T11:00:14-05:00*
G04 #@! TF.ProjectId,twotone_rev1_panel,74776F746F6E655F726576315F70616E,rev?*
G04 #@! TF.SameCoordinates,Original*
G04 #@! TF.FileFunction,Soldermask,Bot*
G04 #@! TF.FilePolarity,Negative*
%FSLAX46Y46*%
G04 Gerber Fmt 4.6, Leading zero omitted, Abs format (unit mm)*
G04 Created by KiCad (PCBNEW (2018-02-10 revision a04965c)-master) date Tuesday, March 20, 2018 at 11:00:14 AM*
%MOMM*%
%LPD*%
G01*
G04 APERTURE LIST*
%ADD10C,0.125000*%
%ADD11C,0.187500*%
%ADD12C,2.700000*%
%ADD13C,5.700000*%
%ADD14C,9.500000*%
G04 APERTURE END LIST*
D10*
X10250000Y-6089285D02*
X9785714Y-6089285D01*
X10035714Y-6375000D01*
X9928571Y-6375000D01*
X9857142Y-6410714D01*
X9821428Y-6446428D01*
X9785714Y-6517857D01*
X9785714Y-6696428D01*
X9821428Y-6767857D01*
X9857142Y-6803571D01*
X9928571Y-6839285D01*
X10142857Y-6839285D01*
X10214285Y-6803571D01*
X10250000Y-6767857D01*
X9464285Y-6839285D02*
X9464285Y-6089285D01*
X9142857Y-6839285D02*
X9142857Y-6446428D01*
X9178571Y-6375000D01*
X9250000Y-6339285D01*
X9357142Y-6339285D01*
X9428571Y-6375000D01*
X9464285Y-6410714D01*
X8785714Y-6339285D02*
X8785714Y-7089285D01*
X8785714Y-6375000D02*
X8714285Y-6339285D01*
X8571428Y-6339285D01*
X8500000Y-6375000D01*
X8464285Y-6410714D01*
X8428571Y-6482142D01*
X8428571Y-6696428D01*
X8464285Y-6767857D01*
X8500000Y-6803571D01*
X8571428Y-6839285D01*
X8714285Y-6839285D01*
X8785714Y-6803571D01*
X7535714Y-6339285D02*
X7535714Y-7089285D01*
X7535714Y-6375000D02*
X7464285Y-6339285D01*
X7321428Y-6339285D01*
X7250000Y-6375000D01*
X7214285Y-6410714D01*
X7178571Y-6482142D01*
X7178571Y-6696428D01*
X7214285Y-6767857D01*
X7250000Y-6803571D01*
X7321428Y-6839285D01*
X7464285Y-6839285D01*
X7535714Y-6803571D01*
X6535714Y-6839285D02*
X6535714Y-6446428D01*
X6571428Y-6375000D01*
X6642857Y-6339285D01*
X6785714Y-6339285D01*
X6857142Y-6375000D01*
X6535714Y-6803571D02*
X6607142Y-6839285D01*
X6785714Y-6839285D01*
X6857142Y-6803571D01*
X6892857Y-6732142D01*
X6892857Y-6660714D01*
X6857142Y-6589285D01*
X6785714Y-6553571D01*
X6607142Y-6553571D01*
X6535714Y-6517857D01*
X6178571Y-6339285D02*
X6178571Y-6839285D01*
X6178571Y-6410714D02*
X6142857Y-6375000D01*
X6071428Y-6339285D01*
X5964285Y-6339285D01*
X5892857Y-6375000D01*
X5857142Y-6446428D01*
X5857142Y-6839285D01*
X5214285Y-6803571D02*
X5285714Y-6839285D01*
X5428571Y-6839285D01*
X5500000Y-6803571D01*
X5535714Y-6732142D01*
X5535714Y-6446428D01*
X5500000Y-6375000D01*
X5428571Y-6339285D01*
X5285714Y-6339285D01*
X5214285Y-6375000D01*
X5178571Y-6446428D01*
X5178571Y-6517857D01*
X5535714Y-6589285D01*
X4750000Y-6839285D02*
X4821428Y-6803571D01*
X4857142Y-6732142D01*
X4857142Y-6089285D01*
X10160714Y-7589285D02*
X9875000Y-7589285D01*
X10053571Y-7339285D02*
X10053571Y-7982142D01*
X10017857Y-8053571D01*
X9946428Y-8089285D01*
X9875000Y-8089285D01*
X9696428Y-7589285D02*
X9553571Y-8089285D01*
X9410714Y-7732142D01*
X9267857Y-8089285D01*
X9125000Y-7589285D01*
X8732142Y-8089285D02*
X8803571Y-8053571D01*
X8839285Y-8017857D01*
X8875000Y-7946428D01*
X8875000Y-7732142D01*
X8839285Y-7660714D01*
X8803571Y-7625000D01*
X8732142Y-7589285D01*
X8625000Y-7589285D01*
X8553571Y-7625000D01*
X8517857Y-7660714D01*
X8482142Y-7732142D01*
X8482142Y-7946428D01*
X8517857Y-8017857D01*
X8553571Y-8053571D01*
X8625000Y-8089285D01*
X8732142Y-8089285D01*
X7696428Y-7589285D02*
X7410714Y-7589285D01*
X7589285Y-7339285D02*
X7589285Y-7982142D01*
X7553571Y-8053571D01*
X7482142Y-8089285D01*
X7410714Y-8089285D01*
X7053571Y-8089285D02*
X7125000Y-8053571D01*
X7160714Y-8017857D01*
X7196428Y-7946428D01*
X7196428Y-7732142D01*
X7160714Y-7660714D01*
X7125000Y-7625000D01*
X7053571Y-7589285D01*
X6946428Y-7589285D01*
X6875000Y-7625000D01*
X6839285Y-7660714D01*
X6803571Y-7732142D01*
X6803571Y-7946428D01*
X6839285Y-8017857D01*
X6875000Y-8053571D01*
X6946428Y-8089285D01*
X7053571Y-8089285D01*
X6482142Y-7589285D02*
X6482142Y-8089285D01*
X6482142Y-7660714D02*
X6446428Y-7625000D01*
X6375000Y-7589285D01*
X6267857Y-7589285D01*
X6196428Y-7625000D01*
X6160714Y-7696428D01*
X6160714Y-8089285D01*
X5517857Y-8053571D02*
X5589285Y-8089285D01*
X5732142Y-8089285D01*
X5803571Y-8053571D01*
X5839285Y-7982142D01*
X5839285Y-7696428D01*
X5803571Y-7625000D01*
X5732142Y-7589285D01*
X5589285Y-7589285D01*
X5517857Y-7625000D01*
X5482142Y-7696428D01*
X5482142Y-7767857D01*
X5839285Y-7839285D01*
X10553571Y-8660714D02*
X10517857Y-8625000D01*
X10446428Y-8589285D01*
X10267857Y-8589285D01*
X10196428Y-8625000D01*
X10160714Y-8660714D01*
X10125000Y-8732142D01*
X10125000Y-8803571D01*
X10160714Y-8910714D01*
X10589285Y-9339285D01*
X10125000Y-9339285D01*
X9660714Y-8589285D02*
X9589285Y-8589285D01*
X9517857Y-8625000D01*
X9482142Y-8660714D01*
X9446428Y-8732142D01*
X9410714Y-8875000D01*
X9410714Y-9053571D01*
X9446428Y-9196428D01*
X9482142Y-9267857D01*
X9517857Y-9303571D01*
X9589285Y-9339285D01*
X9660714Y-9339285D01*
X9732142Y-9303571D01*
X9767857Y-9267857D01*
X9803571Y-9196428D01*
X9839285Y-9053571D01*
X9839285Y-8875000D01*
X9803571Y-8732142D01*
X9767857Y-8660714D01*
X9732142Y-8625000D01*
X9660714Y-8589285D01*
X8696428Y-9339285D02*
X9125000Y-9339285D01*
X8910714Y-9339285D02*
X8910714Y-8589285D01*
X8982142Y-8696428D01*
X9053571Y-8767857D01*
X9125000Y-8803571D01*
X8267857Y-8910714D02*
X8339285Y-8875000D01*
X8374999Y-8839285D01*
X8410714Y-8767857D01*
X8410714Y-8732142D01*
X8374999Y-8660714D01*
X8339285Y-8625000D01*
X8267857Y-8589285D01*
X8124999Y-8589285D01*
X8053571Y-8625000D01*
X8017857Y-8660714D01*
X7982142Y-8732142D01*
X7982142Y-8767857D01*
X8017857Y-8839285D01*
X8053571Y-8875000D01*
X8124999Y-8910714D01*
X8267857Y-8910714D01*
X8339285Y-8946428D01*
X8374999Y-8982142D01*
X8410714Y-9053571D01*
X8410714Y-9196428D01*
X8374999Y-9267857D01*
X8339285Y-9303571D01*
X8267857Y-9339285D01*
X8124999Y-9339285D01*
X8053571Y-9303571D01*
X8017857Y-9267857D01*
X7982142Y-9196428D01*
X7982142Y-9053571D01*
X8017857Y-8982142D01*
X8053571Y-8946428D01*
X8124999Y-8910714D01*
X7089285Y-9339285D02*
X7089285Y-8839285D01*
X7089285Y-8982142D02*
X7053571Y-8910714D01*
X7017857Y-8875000D01*
X6946428Y-8839285D01*
X6874999Y-8839285D01*
X6339285Y-9303571D02*
X6410714Y-9339285D01*
X6553571Y-9339285D01*
X6624999Y-9303571D01*
X6660714Y-9232142D01*
X6660714Y-8946428D01*
X6624999Y-8875000D01*
X6553571Y-8839285D01*
X6410714Y-8839285D01*
X6339285Y-8875000D01*
X6303571Y-8946428D01*
X6303571Y-9017857D01*
X6660714Y-9089285D01*
X6053571Y-8839285D02*
X5874999Y-9339285D01*
X5696428Y-8839285D01*
X4446428Y-9339285D02*
X4874999Y-9339285D01*
X4660714Y-9339285D02*
X4660714Y-8589285D01*
X4732142Y-8696428D01*
X4803571Y-8767857D01*
X4874999Y-8803571D01*
D11*
X9625000Y-117526785D02*
X9339285Y-117526785D01*
X9517857Y-117276785D02*
X9517857Y-117919642D01*
X9482142Y-117991071D01*
X9410714Y-118026785D01*
X9339285Y-118026785D01*
X9160714Y-117526785D02*
X9017857Y-118026785D01*
X8875000Y-117669642D01*
X8732142Y-118026785D01*
X8589285Y-117526785D01*
X8196428Y-118026785D02*
X8267857Y-117991071D01*
X8303571Y-117955357D01*
X8339285Y-117883928D01*
X8339285Y-117669642D01*
X8303571Y-117598214D01*
X8267857Y-117562500D01*
X8196428Y-117526785D01*
X8089285Y-117526785D01*
X8017857Y-117562500D01*
X7982142Y-117598214D01*
X7946428Y-117669642D01*
X7946428Y-117883928D01*
X7982142Y-117955357D01*
X8017857Y-117991071D01*
X8089285Y-118026785D01*
X8196428Y-118026785D01*
X7160714Y-117526785D02*
X6875000Y-117526785D01*
X7053571Y-117276785D02*
X7053571Y-117919642D01*
X7017857Y-117991071D01*
X6946428Y-118026785D01*
X6875000Y-118026785D01*
X6517857Y-118026785D02*
X6589285Y-117991071D01*
X6625000Y-117955357D01*
X6660714Y-117883928D01*
X6660714Y-117669642D01*
X6625000Y-117598214D01*
X6589285Y-117562500D01*
X6517857Y-117526785D01*
X6410714Y-117526785D01*
X6339285Y-117562500D01*
X6303571Y-117598214D01*
X6267857Y-117669642D01*
X6267857Y-117883928D01*
X6303571Y-117955357D01*
X6339285Y-117991071D01*
X6410714Y-118026785D01*
X6517857Y-118026785D01*
X5946428Y-117526785D02*
X5946428Y-118026785D01*
X5946428Y-117598214D02*
X5910714Y-117562500D01*
X5839285Y-117526785D01*
X5732142Y-117526785D01*
X5660714Y-117562500D01*
X5625000Y-117633928D01*
X5625000Y-118026785D01*
X4982142Y-117991071D02*
X5053571Y-118026785D01*
X5196428Y-118026785D01*
X5267857Y-117991071D01*
X5303571Y-117919642D01*
X5303571Y-117633928D01*
X5267857Y-117562500D01*
X5196428Y-117526785D01*
X5053571Y-117526785D01*
X4982142Y-117562500D01*
X4946428Y-117633928D01*
X4946428Y-117705357D01*
X5303571Y-117776785D01*
X10089285Y-119339285D02*
X10089285Y-118589285D01*
X10089285Y-118875000D02*
X10017857Y-118839285D01*
X9875000Y-118839285D01*
X9803571Y-118875000D01*
X9767857Y-118910714D01*
X9732142Y-118982142D01*
X9732142Y-119196428D01*
X9767857Y-119267857D01*
X9803571Y-119303571D01*
X9875000Y-119339285D01*
X10017857Y-119339285D01*
X10089285Y-119303571D01*
X9125000Y-119303571D02*
X9196428Y-119339285D01*
X9339285Y-119339285D01*
X9410714Y-119303571D01*
X9446428Y-119232142D01*
X9446428Y-118946428D01*
X9410714Y-118875000D01*
X9339285Y-118839285D01*
X9196428Y-118839285D01*
X9125000Y-118875000D01*
X9089285Y-118946428D01*
X9089285Y-119017857D01*
X9446428Y-119089285D01*
X8767857Y-118839285D02*
X8767857Y-119339285D01*
X8767857Y-118910714D02*
X8732142Y-118875000D01*
X8660714Y-118839285D01*
X8553571Y-118839285D01*
X8482142Y-118875000D01*
X8446428Y-118946428D01*
X8446428Y-119339285D01*
X7517857Y-119339285D02*
X7517857Y-118839285D01*
X7517857Y-118910714D02*
X7482142Y-118875000D01*
X7410714Y-118839285D01*
X7303571Y-118839285D01*
X7232142Y-118875000D01*
X7196428Y-118946428D01*
X7196428Y-119339285D01*
X7196428Y-118946428D02*
X7160714Y-118875000D01*
X7089285Y-118839285D01*
X6982142Y-118839285D01*
X6910714Y-118875000D01*
X6875000Y-118946428D01*
X6875000Y-119339285D01*
X6410714Y-119339285D02*
X6482142Y-119303571D01*
X6517857Y-119267857D01*
X6553571Y-119196428D01*
X6553571Y-118982142D01*
X6517857Y-118910714D01*
X6482142Y-118875000D01*
X6410714Y-118839285D01*
X6303571Y-118839285D01*
X6232142Y-118875000D01*
X6196428Y-118910714D01*
X6160714Y-118982142D01*
X6160714Y-119196428D01*
X6196428Y-119267857D01*
X6232142Y-119303571D01*
X6303571Y-119339285D01*
X6410714Y-119339285D01*
X5839285Y-119339285D02*
X5839285Y-118839285D01*
X5839285Y-118982142D02*
X5803571Y-118910714D01*
X5767857Y-118875000D01*
X5696428Y-118839285D01*
X5625000Y-118839285D01*
X5089285Y-119303571D02*
X5160714Y-119339285D01*
X5303571Y-119339285D01*
X5375000Y-119303571D01*
X5410714Y-119232142D01*
X5410714Y-118946428D01*
X5375000Y-118875000D01*
X5303571Y-118839285D01*
X5160714Y-118839285D01*
X5089285Y-118875000D01*
X5053571Y-118946428D01*
X5053571Y-119017857D01*
X5410714Y-119089285D01*
X4732142Y-118839285D02*
X4732142Y-119339285D01*
X4732142Y-118910714D02*
X4696428Y-118875000D01*
X4625000Y-118839285D01*
X4517857Y-118839285D01*
X4446428Y-118875000D01*
X4410714Y-118946428D01*
X4410714Y-119339285D01*
X10696428Y-120580357D02*
X10732142Y-120616071D01*
X10839285Y-120651785D01*
X10910714Y-120651785D01*
X11017857Y-120616071D01*
X11089285Y-120544642D01*
X11125000Y-120473214D01*
X11160714Y-120330357D01*
X11160714Y-120223214D01*
X11125000Y-120080357D01*
X11089285Y-120008928D01*
X11017857Y-119937500D01*
X10910714Y-119901785D01*
X10839285Y-119901785D01*
X10732142Y-119937500D01*
X10696428Y-119973214D01*
X9946428Y-120580357D02*
X9982142Y-120616071D01*
X10089285Y-120651785D01*
X10160714Y-120651785D01*
X10267857Y-120616071D01*
X10339285Y-120544642D01*
X10375000Y-120473214D01*
X10410714Y-120330357D01*
X10410714Y-120223214D01*
X10375000Y-120080357D01*
X10339285Y-120008928D01*
X10267857Y-119937500D01*
X10160714Y-119901785D01*
X10089285Y-119901785D01*
X9982142Y-119937500D01*
X9946428Y-119973214D01*
X8803571Y-120258928D02*
X8696428Y-120294642D01*
X8660714Y-120330357D01*
X8625000Y-120401785D01*
X8625000Y-120508928D01*
X8660714Y-120580357D01*
X8696428Y-120616071D01*
X8767857Y-120651785D01*
X9053571Y-120651785D01*
X9053571Y-119901785D01*
X8803571Y-119901785D01*
X8732142Y-119937500D01*
X8696428Y-119973214D01*
X8660714Y-120044642D01*
X8660714Y-120116071D01*
X8696428Y-120187500D01*
X8732142Y-120223214D01*
X8803571Y-120258928D01*
X9053571Y-120258928D01*
X8160714Y-120294642D02*
X8160714Y-120651785D01*
X8410714Y-119901785D02*
X8160714Y-120294642D01*
X7910714Y-119901785D01*
X7660714Y-120366071D02*
X7089285Y-120366071D01*
X6767857Y-120616071D02*
X6660714Y-120651785D01*
X6482142Y-120651785D01*
X6410714Y-120616071D01*
X6375000Y-120580357D01*
X6339285Y-120508928D01*
X6339285Y-120437500D01*
X6375000Y-120366071D01*
X6410714Y-120330357D01*
X6482142Y-120294642D01*
X6625000Y-120258928D01*
X6696428Y-120223214D01*
X6732142Y-120187500D01*
X6767857Y-120116071D01*
X6767857Y-120044642D01*
X6732142Y-119973214D01*
X6696428Y-119937500D01*
X6625000Y-119901785D01*
X6446428Y-119901785D01*
X6339285Y-119937500D01*
X6053571Y-120437500D02*
X5696428Y-120437500D01*
X6125000Y-120651785D02*
X5875000Y-119901785D01*
X5625000Y-120651785D01*
X4482142Y-120151785D02*
X4482142Y-120651785D01*
X4660714Y-119866071D02*
X4839285Y-120401785D01*
X4375000Y-120401785D01*
X4089285Y-120580357D02*
X4053571Y-120616071D01*
X4089285Y-120651785D01*
X4125000Y-120616071D01*
X4089285Y-120580357D01*
X4089285Y-120651785D01*
X3589285Y-119901785D02*
X3517857Y-119901785D01*
X3446428Y-119937500D01*
X3410714Y-119973214D01*
X3375000Y-120044642D01*
X3339285Y-120187500D01*
X3339285Y-120366071D01*
X3375000Y-120508928D01*
X3410714Y-120580357D01*
X3446428Y-120616071D01*
X3517857Y-120651785D01*
X3589285Y-120651785D01*
X3660714Y-120616071D01*
X3696428Y-120580357D01*
X3732142Y-120508928D01*
X3767857Y-120366071D01*
X3767857Y-120187500D01*
X3732142Y-120044642D01*
X3696428Y-119973214D01*
X3660714Y-119937500D01*
X3589285Y-119901785D01*
D12*
X7500000Y-3000000D03*
X7500000Y-125500000D03*
D13*
X7500000Y-14490000D03*
X7500000Y-110490000D03*
X7500000Y-98990000D03*
X7500000Y-84240000D03*
X7500000Y-69490000D03*
X7500000Y-55490000D03*
X7500000Y-29240000D03*
D14*
X7500000Y-43990000D03*
D12*
X7500000Y-21750000D03*
X7500000Y-76750000D03*
M02*
