G04 #@! TF.GenerationSoftware,KiCad,Pcbnew,(2018-02-10 revision a04965c)-master*
G04 #@! TF.CreationDate,2018-03-20T11:00:14-05:00*
G04 #@! TF.ProjectId,twotone_rev1_panel,74776F746F6E655F726576315F70616E,rev?*
G04 #@! TF.SameCoordinates,Original*
G04 #@! TF.FileFunction,Legend,Bot*
G04 #@! TF.FilePolarity,Positive*
%FSLAX46Y46*%
G04 Gerber Fmt 4.6, Leading zero omitted, Abs format (unit mm)*
G04 Created by KiCad (PCBNEW (2018-02-10 revision a04965c)-master) date Tuesday, March 20, 2018 at 11:00:14 AM*
%MOMM*%
%LPD*%
G01*
G04 APERTURE LIST*
%ADD10C,0.125000*%
G04 APERTURE END LIST*
D10*
X10571428Y-60339285D02*
X10571428Y-59589285D01*
X10285714Y-59589285D01*
X10214285Y-59625000D01*
X10178571Y-59660714D01*
X10142857Y-59732142D01*
X10142857Y-59839285D01*
X10178571Y-59910714D01*
X10214285Y-59946428D01*
X10285714Y-59982142D01*
X10571428Y-59982142D01*
X9500000Y-60339285D02*
X9500000Y-59946428D01*
X9535714Y-59875000D01*
X9607142Y-59839285D01*
X9750000Y-59839285D01*
X9821428Y-59875000D01*
X9500000Y-60303571D02*
X9571428Y-60339285D01*
X9750000Y-60339285D01*
X9821428Y-60303571D01*
X9857142Y-60232142D01*
X9857142Y-60160714D01*
X9821428Y-60089285D01*
X9750000Y-60053571D01*
X9571428Y-60053571D01*
X9500000Y-60017857D01*
X9142857Y-59839285D02*
X9142857Y-60339285D01*
X9142857Y-59910714D02*
X9107142Y-59875000D01*
X9035714Y-59839285D01*
X8928571Y-59839285D01*
X8857142Y-59875000D01*
X8821428Y-59946428D01*
X8821428Y-60339285D01*
X8178571Y-60303571D02*
X8250000Y-60339285D01*
X8392857Y-60339285D01*
X8464285Y-60303571D01*
X8500000Y-60232142D01*
X8500000Y-59946428D01*
X8464285Y-59875000D01*
X8392857Y-59839285D01*
X8250000Y-59839285D01*
X8178571Y-59875000D01*
X8142857Y-59946428D01*
X8142857Y-60017857D01*
X8500000Y-60089285D01*
X7714285Y-60339285D02*
X7785714Y-60303571D01*
X7821428Y-60232142D01*
X7821428Y-59589285D01*
X6607142Y-59946428D02*
X6857142Y-59946428D01*
X6857142Y-60339285D02*
X6857142Y-59589285D01*
X6500000Y-59589285D01*
X6107142Y-60339285D02*
X6178571Y-60303571D01*
X6214285Y-60267857D01*
X6250000Y-60196428D01*
X6250000Y-59982142D01*
X6214285Y-59910714D01*
X6178571Y-59875000D01*
X6107142Y-59839285D01*
X6000000Y-59839285D01*
X5928571Y-59875000D01*
X5892857Y-59910714D01*
X5857142Y-59982142D01*
X5857142Y-60196428D01*
X5892857Y-60267857D01*
X5928571Y-60303571D01*
X6000000Y-60339285D01*
X6107142Y-60339285D01*
X5535714Y-59839285D02*
X5535714Y-60339285D01*
X5535714Y-59910714D02*
X5500000Y-59875000D01*
X5428571Y-59839285D01*
X5321428Y-59839285D01*
X5250000Y-59875000D01*
X5214285Y-59946428D01*
X5214285Y-60339285D01*
X4964285Y-59839285D02*
X4678571Y-59839285D01*
X4857142Y-59589285D02*
X4857142Y-60232142D01*
X4821428Y-60303571D01*
X4750000Y-60339285D01*
X4678571Y-60339285D01*
X4428571Y-60267857D02*
X4392857Y-60303571D01*
X4428571Y-60339285D01*
X4464285Y-60303571D01*
X4428571Y-60267857D01*
X4428571Y-60339285D01*
X4428571Y-59875000D02*
X4392857Y-59910714D01*
X4428571Y-59946428D01*
X4464285Y-59910714D01*
X4428571Y-59875000D01*
X4428571Y-59946428D01*
X8732142Y-61196428D02*
X8982142Y-61196428D01*
X8982142Y-61589285D02*
X8982142Y-60839285D01*
X8625000Y-60839285D01*
X8017857Y-61589285D02*
X8017857Y-61196428D01*
X8053571Y-61125000D01*
X8125000Y-61089285D01*
X8267857Y-61089285D01*
X8339285Y-61125000D01*
X8017857Y-61553571D02*
X8089285Y-61589285D01*
X8267857Y-61589285D01*
X8339285Y-61553571D01*
X8375000Y-61482142D01*
X8375000Y-61410714D01*
X8339285Y-61339285D01*
X8267857Y-61303571D01*
X8089285Y-61303571D01*
X8017857Y-61267857D01*
X7339285Y-61089285D02*
X7339285Y-61589285D01*
X7660714Y-61089285D02*
X7660714Y-61482142D01*
X7625000Y-61553571D01*
X7553571Y-61589285D01*
X7446428Y-61589285D01*
X7375000Y-61553571D01*
X7339285Y-61517857D01*
X6982142Y-61089285D02*
X6982142Y-61589285D01*
X6982142Y-61160714D02*
X6946428Y-61125000D01*
X6875000Y-61089285D01*
X6767857Y-61089285D01*
X6696428Y-61125000D01*
X6660714Y-61196428D01*
X6660714Y-61589285D01*
X6017857Y-61553571D02*
X6089285Y-61589285D01*
X6232142Y-61589285D01*
X6303571Y-61553571D01*
X6339285Y-61482142D01*
X6339285Y-61196428D01*
X6303571Y-61125000D01*
X6232142Y-61089285D01*
X6089285Y-61089285D01*
X6017857Y-61125000D01*
X5982142Y-61196428D01*
X5982142Y-61267857D01*
X6339285Y-61339285D01*
X11089285Y-62625000D02*
X10732142Y-62625000D01*
X11160714Y-62839285D02*
X10910714Y-62089285D01*
X10660714Y-62839285D01*
X10303571Y-62839285D02*
X10375000Y-62803571D01*
X10410714Y-62732142D01*
X10410714Y-62089285D01*
X10017857Y-62839285D02*
X10017857Y-62339285D01*
X10017857Y-62089285D02*
X10053571Y-62125000D01*
X10017857Y-62160714D01*
X9982142Y-62125000D01*
X10017857Y-62089285D01*
X10017857Y-62160714D01*
X9339285Y-62803571D02*
X9410714Y-62839285D01*
X9553571Y-62839285D01*
X9625000Y-62803571D01*
X9660714Y-62767857D01*
X9696428Y-62696428D01*
X9696428Y-62482142D01*
X9660714Y-62410714D01*
X9625000Y-62375000D01*
X9553571Y-62339285D01*
X9410714Y-62339285D01*
X9339285Y-62375000D01*
X8732142Y-62803571D02*
X8803571Y-62839285D01*
X8946428Y-62839285D01*
X9017857Y-62803571D01*
X9053571Y-62732142D01*
X9053571Y-62446428D01*
X9017857Y-62375000D01*
X8946428Y-62339285D01*
X8803571Y-62339285D01*
X8732142Y-62375000D01*
X8696428Y-62446428D01*
X8696428Y-62517857D01*
X9053571Y-62589285D01*
X7839285Y-62803571D02*
X7732142Y-62839285D01*
X7553571Y-62839285D01*
X7482142Y-62803571D01*
X7446428Y-62767857D01*
X7410714Y-62696428D01*
X7410714Y-62625000D01*
X7446428Y-62553571D01*
X7482142Y-62517857D01*
X7553571Y-62482142D01*
X7696428Y-62446428D01*
X7767857Y-62410714D01*
X7803571Y-62375000D01*
X7839285Y-62303571D01*
X7839285Y-62232142D01*
X7803571Y-62160714D01*
X7767857Y-62125000D01*
X7696428Y-62089285D01*
X7517857Y-62089285D01*
X7410714Y-62125000D01*
X6767857Y-62839285D02*
X6767857Y-62446428D01*
X6803571Y-62375000D01*
X6875000Y-62339285D01*
X7017857Y-62339285D01*
X7089285Y-62375000D01*
X6767857Y-62803571D02*
X6839285Y-62839285D01*
X7017857Y-62839285D01*
X7089285Y-62803571D01*
X7125000Y-62732142D01*
X7125000Y-62660714D01*
X7089285Y-62589285D01*
X7017857Y-62553571D01*
X6839285Y-62553571D01*
X6767857Y-62517857D01*
X6482142Y-62339285D02*
X6303571Y-62839285D01*
X6125000Y-62339285D01*
X5732142Y-62839285D02*
X5803571Y-62803571D01*
X5839285Y-62767857D01*
X5875000Y-62696428D01*
X5875000Y-62482142D01*
X5839285Y-62410714D01*
X5803571Y-62375000D01*
X5732142Y-62339285D01*
X5625000Y-62339285D01*
X5553571Y-62375000D01*
X5517857Y-62410714D01*
X5482142Y-62482142D01*
X5482142Y-62696428D01*
X5517857Y-62767857D01*
X5553571Y-62803571D01*
X5625000Y-62839285D01*
X5732142Y-62839285D01*
X5160714Y-62839285D02*
X5160714Y-62339285D01*
X5160714Y-62089285D02*
X5196428Y-62125000D01*
X5160714Y-62160714D01*
X5125000Y-62125000D01*
X5160714Y-62089285D01*
X5160714Y-62160714D01*
X4517857Y-62803571D02*
X4589285Y-62839285D01*
X4732142Y-62839285D01*
X4803571Y-62803571D01*
X4839285Y-62732142D01*
X4839285Y-62446428D01*
X4803571Y-62375000D01*
X4732142Y-62339285D01*
X4589285Y-62339285D01*
X4517857Y-62375000D01*
X4482142Y-62446428D01*
X4482142Y-62517857D01*
X4839285Y-62589285D01*
X8285714Y-64017857D02*
X8321428Y-64053571D01*
X8428571Y-64089285D01*
X8500000Y-64089285D01*
X8607142Y-64053571D01*
X8678571Y-63982142D01*
X8714285Y-63910714D01*
X8750000Y-63767857D01*
X8750000Y-63660714D01*
X8714285Y-63517857D01*
X8678571Y-63446428D01*
X8607142Y-63375000D01*
X8500000Y-63339285D01*
X8428571Y-63339285D01*
X8321428Y-63375000D01*
X8285714Y-63410714D01*
X7964285Y-63589285D02*
X7964285Y-64089285D01*
X7964285Y-63660714D02*
X7928571Y-63625000D01*
X7857142Y-63589285D01*
X7750000Y-63589285D01*
X7678571Y-63625000D01*
X7642857Y-63696428D01*
X7642857Y-64089285D01*
X6964285Y-64089285D02*
X6964285Y-63696428D01*
X7000000Y-63625000D01*
X7071428Y-63589285D01*
X7214285Y-63589285D01*
X7285714Y-63625000D01*
X6964285Y-64053571D02*
X7035714Y-64089285D01*
X7214285Y-64089285D01*
X7285714Y-64053571D01*
X7321428Y-63982142D01*
X7321428Y-63910714D01*
X7285714Y-63839285D01*
X7214285Y-63803571D01*
X7035714Y-63803571D01*
X6964285Y-63767857D01*
X6607142Y-63589285D02*
X6607142Y-64339285D01*
X6607142Y-63625000D02*
X6535714Y-63589285D01*
X6392857Y-63589285D01*
X6321428Y-63625000D01*
X6285714Y-63660714D01*
X6250000Y-63732142D01*
X6250000Y-63946428D01*
X6285714Y-64017857D01*
X6321428Y-64053571D01*
X6392857Y-64089285D01*
X6535714Y-64089285D01*
X6607142Y-64053571D01*
X11035714Y-65267857D02*
X11071428Y-65303571D01*
X11178571Y-65339285D01*
X11250000Y-65339285D01*
X11357142Y-65303571D01*
X11428571Y-65232142D01*
X11464285Y-65160714D01*
X11500000Y-65017857D01*
X11500000Y-64910714D01*
X11464285Y-64767857D01*
X11428571Y-64696428D01*
X11357142Y-64625000D01*
X11250000Y-64589285D01*
X11178571Y-64589285D01*
X11071428Y-64625000D01*
X11035714Y-64660714D01*
X10285714Y-65267857D02*
X10321428Y-65303571D01*
X10428571Y-65339285D01*
X10500000Y-65339285D01*
X10607142Y-65303571D01*
X10678571Y-65232142D01*
X10714285Y-65160714D01*
X10750000Y-65017857D01*
X10750000Y-64910714D01*
X10714285Y-64767857D01*
X10678571Y-64696428D01*
X10607142Y-64625000D01*
X10500000Y-64589285D01*
X10428571Y-64589285D01*
X10321428Y-64625000D01*
X10285714Y-64660714D01*
X9142857Y-64946428D02*
X9035714Y-64982142D01*
X9000000Y-65017857D01*
X8964285Y-65089285D01*
X8964285Y-65196428D01*
X9000000Y-65267857D01*
X9035714Y-65303571D01*
X9107142Y-65339285D01*
X9392857Y-65339285D01*
X9392857Y-64589285D01*
X9142857Y-64589285D01*
X9071428Y-64625000D01*
X9035714Y-64660714D01*
X9000000Y-64732142D01*
X9000000Y-64803571D01*
X9035714Y-64875000D01*
X9071428Y-64910714D01*
X9142857Y-64946428D01*
X9392857Y-64946428D01*
X8500000Y-64982142D02*
X8500000Y-65339285D01*
X8750000Y-64589285D02*
X8500000Y-64982142D01*
X8250000Y-64589285D01*
X8000000Y-65053571D02*
X7428571Y-65053571D01*
X7071428Y-65339285D02*
X7071428Y-64589285D01*
X6642857Y-65339285D01*
X6642857Y-64589285D01*
X6285714Y-65339285D02*
X6285714Y-64589285D01*
X6107142Y-64589285D01*
X6000000Y-64625000D01*
X5928571Y-64696428D01*
X5892857Y-64767857D01*
X5857142Y-64910714D01*
X5857142Y-65017857D01*
X5892857Y-65160714D01*
X5928571Y-65232142D01*
X6000000Y-65303571D01*
X6107142Y-65339285D01*
X6285714Y-65339285D01*
X4642857Y-64839285D02*
X4642857Y-65339285D01*
X4821428Y-64553571D02*
X5000000Y-65089285D01*
X4535714Y-65089285D01*
X4250000Y-65267857D02*
X4214285Y-65303571D01*
X4250000Y-65339285D01*
X4285714Y-65303571D01*
X4250000Y-65267857D01*
X4250000Y-65339285D01*
X3750000Y-64589285D02*
X3678571Y-64589285D01*
X3607142Y-64625000D01*
X3571428Y-64660714D01*
X3535714Y-64732142D01*
X3500000Y-64875000D01*
X3500000Y-65053571D01*
X3535714Y-65196428D01*
X3571428Y-65267857D01*
X3607142Y-65303571D01*
X3678571Y-65339285D01*
X3750000Y-65339285D01*
X3821428Y-65303571D01*
X3857142Y-65267857D01*
X3892857Y-65196428D01*
X3928571Y-65053571D01*
X3928571Y-64875000D01*
X3892857Y-64732142D01*
X3857142Y-64660714D01*
X3821428Y-64625000D01*
X3750000Y-64589285D01*
M02*
